<svg xmlns="http://www.w3.org/2000/svg" xmlns:xlink="http://www.w3.org/1999/xlink" class="card" height="336" preserveAspectRatio="none" viewBox="-120 -168 240 336" width="240">
  <defs>
    <path id="i" d="M-82.4-130.4H82.4v260.8H-82.4z"/>
  </defs>
  <symbol id="h" viewBox="-500 -500 1000 1000" preserveAspectRatio="xMinYMid">
    <path d="M-260 100c300 0 220 360 520 360M-175 0v-285a175 175 0 01350 0v570a175 175 0 01-350 0z" stroke="#000" stroke-width="80" stroke-linecap="square" stroke-miterlimit="1.5" fill="none"/>
  </symbol>
  <symbol id="a" viewBox="-600 -600 1200 1200" preserveAspectRatio="xMinYMid">
    <path d="M0-500c100 250 355 400 355 685a150 150 0 01-300 0 10 10 0 00-20 0c0 200 50 215 95 315h-260c45-100 95-115 95-315a10 10 0 00-20 0 150 150 0 01-300 0c0-285 255-435 355-685z"/>
  </symbol>
  <symbol id="b" preserveAspectRatio="none" viewBox="0 0 1300 2000">
    <path fill="#FC4" d="M635.39648 0l216.47071 312.33789C895.10685 299.11869 938.83136 290.34833 975 285 924.90197 188.22401 899.89439 94.153799 874.11133 0zM295.52539 27.285156C246.27551 180.9799 142.75435 335.54042 209.25195 483.08398l-17.43359 13.44922c1.76531 151.10099 30.08527 286.57163 74.54102 398.60938 18.12594 21.287 38.56227 42.11564 61.47851 64.11523 3.61128 3.46683 7.28461 6.96262 11.33789 10.61914L901.47852 970l-.41407-.51953c-.12219-.138-.23745-.27418-.35937-.41211 15.27725 17.28278 32.6506 35.12574 52.3164 53.54294C1030.1434 1094.8366 1080 1150 1130 1250c52.9819-70.6425 98.186-110.0972 170-152.7871v-37.6016c-68.6196 39.3343-116.9422 76.6549-164.5547 131.9668-44.9491-77.8482-93.9175-130.6069-160.20897-192.68943-76.05982-71.23062-114.27421-131.59148-129.3711-180.42578-15.09688-48.8343-8.90849-86.60287 7.94922-120.96875 28.31708-57.72677 91.51367-102.35489 139.07032-133.86328l-26.7793-21.49024c-69.5685 45.96957-172.87952 123.53425-159.99609 244.34766L699.86133 787.5 568.0625 939.89258l-138.57812-.0293C578.06034 763.29892 745.82856 594.02803 899.1875 455.09961l-9.56836-10.99023c-28.86687-3.02061-55.64392-10.37642-80.51758-21.42774-1.77605 4.17261-4.43372 8.02096-7.94336 11.23438C665.11643 558.39566 525.46983 665.166 419.78906 829.43164l-27.33203-17.58398c109.23641-169.79237 252.1302-278.72092 386.76172-401.91016l17.51367 6.86328c-17.74437-8.98707-34.48695-19.8921-50.29101-32.48437-124.71285 29.03155-208.27492 36.48099-267.26758 31.98242 0 0-19.31641 14.60547-29.31641 14.60547-15 0-25.58008-5.64453-30.58008-5.64453s-10 5-25 5-30-25-40-50c-1.51422-2.01895-3.01443-4.07919-4.23242-5.79297l-39.21875 30.25586 10.50977-.54493c7.17244 138.45299-1.25836 281.23598 43.02929 408.13477l-27.41796 17.66602c-1.32891-2.13106-2.43311-4.45616-3.26758-6.95704-45.45118-130.23268-38.38547-270.3172-44.08203-401.92187l-69.70313 53.77344 20.20508-16.59375c-53.01507-160.41936 25.44068-275.42439 59.99609-399.318362zM85 80C29.999996 130-15.000004 225 50 225c9.343263 0 15.215964-5.70961 19.599609-15.58984l-.05469 54.80664C63.116922 255.80043 55.218717 250 45 250c-34.999996 0-39.999996 70-5 70 24.46345 0 22.957588-43.08208 10.8125-44.93164 53.48157 5.0855-15.809214 250.16385-15.302734 296.2207.268193 24.38822 6.628431 48.73678 31.46289 56.20899C48.176742 632.49354 35 645.1697 35 660c0 14.30844 12.265656 26.61054 30.384766 32.25586C41.674751 699.57565 35 720.74035 35 740c0 36.24391 13.1356 96.13212 20.517578 126.33008 27.08679-19.78389 50.566342-40.90142 73.322262-66.11133C132.14826 778.91478 135 756.88968 135 740c0-19.39937-6.7715-40.73133-30.84766-48.04102C118.02756 686.75065 129.28173 676.58841 135 660c0-14.83344-13.18185-27.51102-30.78711-32.89844 24.05654-8.65812 30.01787-32.21714 30.27734-55.8125.50648-46.05685-68.784299-291.1352-15.30273-296.2207C107.04241 276.91792 105.53655 320 130 320c35 0 30-70-5-70-10.83425 0-19.06007 6.52154-25.074219 15.02148l.326169-55.74218C104.49041 218.99863 110.42097 225 120 225c65 0 20-95-35-145zm641.48047 287.83789c-86.62544 19.83455-151.78802 28.17022-200.80469 29.24219-14.2248 6.27415-30.07191 11.92239-45.7793 18.95898 58.99266 4.49857 142.55438-2.95118 267.19727-32.03711-7.7527-5.20716-14.38853-10.76914-20.61328-16.16406zm-370.49024 88.29102c29.62693 11.74538 64.9141 21.55877 110.0293 25.15039 51.3028 4.08421 115.55629.48608 200.56445-14.4043C568.01187 553.99998 468.15967 644.25595 384.25 765.71289c-25.01163-94.80542-24.71073-201.03641-28.25977-309.58398zM1182.5 473.75c-24.0403 0-48.0562 17.34722-29.8594 52.02344A45 42.5 0 011182.5 515a45 42.5 0 0129.8652 10.76367c18.1868-34.6694-5.8272-52.01367-29.8652-52.01367zm-54.6914 47.48047c-45.2477.77462-37.6424 97.7377 22.793 66.2168A45 42.5 0 011137.5 557.5a45 42.5 0 0113.1113-29.94336c-8.6891-4.53343-16.2978-6.43753-22.8027-6.32617zm109.3828 0c-6.5027-.11132-14.1076 1.79222-22.793 6.32226A45 42.5 0 011227.5 557.5a45 42.5 0 01-13.1094 29.94336c60.4429 31.53409 68.0505-65.43824 22.8008-66.21289zm-24.8301 67.99414A45 42.5 0 011182.5 600a45 42.5 0 01-29.8652-10.76367c-11.9875 22.85174-5.6311 38.16959 6.9726 45.95898-23.6821 34.46419-48.941 66.02584-74.9492 96.20703C1079.1653 675.69528 1058.4509 645.45798 1005 670c37.225 16.12754 38.5709 70.31699 75.9492 65.69727-5.8664 6.76063-11.768 13.45662-17.6972 20.10156l15.207 1.88672c7.2551-8.19076 14.4623-16.46748 21.6113-24.85352 5.1929 39.08146 35.0698-7.57452 67.2129-5.5-16.4802-41.743-32.0495-10.50502-66.4785 4.63672 24.5708-28.86629 48.4073-59.08334 70.8027-91.95508 26.5679 6.12811 61.7407-10.79807 40.7539-50.78906zM1255 655c-32.9633 38.74398-63.8666 77.97963-125 110 16.8191 30.21345 26.6544 60.2083 30 90 47.2312 18.32372 82.8871 51.83723 115 90 2.3419-37.0436-4.2974-71.38724-30-100 23.3498-4.99857 40.0029-20.01884 50-45-14.5281-24.40208-35.9759-32.69918-60-35 44.8752-32.16719 30.2665-71.33926 20-110zM811.88477 817.78516c10.86486 41.66548 35.34229 88.00659 78.58593 139.42382-4.92291-5.82285-9.66276-11.58316-14.2207-17.2539l-286.46289-.0586 64.60547-.45703L729.58398 852.5l93.88282-.33984c-4.9028-11.9067-8.74345-23.39087-11.58203-34.375zM377.5 842.5c4.42321 0 9.31831 2.00257 14.86719 9.24023C397.91606 858.97789 402.5 871.0223 402.5 885c0 13.9777-4.58394 26.0221-10.13281 33.25977C386.81831 925.49743 381.92321 927.5 377.5 927.5c-4.42321 0-9.31831-2.00257-14.86719-9.24023C357.08394 911.0221 352.5 898.9777 352.5 885c0-13.9777 4.58394-26.02211 10.13281-33.25977C368.18169 844.50257 373.07679 842.5 377.5 842.5z"/>
  </symbol>
  <symbol id="c" preserveAspectRatio="none" viewBox="0 0 1300 2000">
    <path fill="red" d="M557.51758 0L805.9668 330.45703l45.04687-18.45898L635.36719 0zm78.02148 0l63.76563 90.75C709.99966 65.000167 725 65 725 65c-8.49349-38.220701 3.31462-47.895584 8.20117-65zM820 265l31.86719 47.33789c25.64071-7.83886 51.45239-14.11297 75.78711-19.07227C907.75762 290.72138 885.5191 284.6565 865 270c-10 5-30 10-45-5zm99.12695 216.28711C764.14521 621.01648 595.55342 787.07572 470.35547 940.01172L525 940l160-185h120.41797l-.0547-.41211c6.37431-102.76161 97.50088-170.65811 160.41211-212.22851zm-727.41992 15.5625l-59.86133 46.34766-.39648.30468c1.93099 12.0459 3.10803 21.69313 3.04101 27.78711-.25947 23.59536-6.2208 47.15438-30.27734 55.8125C121.81815 632.48898 135 645.16656 135 660c-5.71827 16.58841-16.97244 26.75065-30.84766 31.95898C128.2285 699.26867 135 720.60063 135 740c0 16.88968-2.85174 38.91478-6.16016 60.21875-1.95154 2.162-3.90854 4.29257-5.87304 6.39453C138.56664 789.96704 153.92711 771.43051 170 750c30.25102 60.50205 60.44886 104.59181 96.85742 145.71484-44.95546-112.61002-73.27316-248.08035-75.15039-398.86523zM44.53125 610.36133L0 644.61523V902.7832c30.797744-18.31705 56.707359-36.04683 80.427734-55.88476-7.999743 6.67183-16.269632 13.12069-24.910156 19.43164C48.1356 836.13212 35 776.24391 35 740c0-19.25965 6.674751-40.42435 30.384766-47.74414C47.265656 686.61054 35 674.30844 35 660c0-14.8303 13.176742-27.50646 31.972656-32.50195-10.444093-3.14243-17.610922-9.277-22.441406-17.13672zM1234.6289 679.1582l-1.1211 1.04688c-20.0542 23.0427-41.8711 45.665-71.7441 65.72265 27.117 39.37142 36.6532 80.37363 27.7441 123.12891 25.4392 14.76465 47.2329 33.87001 67.875 55.8418-10.0896-28.95393-26.9566-68.05217-64.6191-89.36328C1229.865 829.72137 1245.3631 819.51581 1260 800c-28.5778-21.24841-50.4759-15.94491-77.3027-15.66992 39.149-21.89578 49.9371-64.78262 51.9316-105.17188zM110.74609 819.23828c-.7889.78628-1.58065 1.56702-2.37304 2.3457.792-.77791 1.58362-1.55961 2.37304-2.3457zm-5.15234 5.05078c-.76819.74251-1.53476 1.48679-2.30664 2.22266.77112-.73534 1.53841-1.48017 2.30664-2.22266zm-5.26172 5.00586c-2.077449 1.94603-4.165139 3.87648-6.273436 5.7793 2.104356-1.90192 4.194747-3.83083 6.273436-5.7793zm-6.539061 6.02149c-1.467973 1.32281-2.945132 2.63598-4.429688 3.93945 1.482456-1.30407 2.961518-2.61456 4.429688-3.93945zM377.5 862.5a11 22.5 0 00-11 22.5 11 22.5 0 0011 22.5 11 22.5 0 0011-22.5 11 22.5 0 00-11-22.5zm225.17578 127.46484a10 10 0 00-10 10 10 10 0 0010 9.99996 10 10 0 0010-9.99996 10 10 0 00-10-10zM420 990a10 10 0 00-10 10 10 10 0 0010 10 10 10 0 0010-10 10 10 0 00-10-10zm91.13281.41016a10 10 0 00-10 10.00004 10 10 0 0010 10 10 10 0 0010-10 10 10 0 00-10-10.00004z"/>
  </symbol>
  <symbol id="d" preserveAspectRatio="none" viewBox="0 0 1300 2000">
    <path fill="#44F" d="M472.5 150a12.5 20 0 00-12.5 20 12.5 20 0 0012.5 20 12.5 20 0 0012.5-20 12.5 20 0 00-12.5-20zm-140 5a12.5 20 0 00-12.5 20 12.5 20 0 0012.5 20 12.5 20 0 0012.5-20 12.5 20 0 00-12.5-20zm23.49023 301.12891c3.54904 108.54757 3.24814 214.77856 28.25977 309.58398C468.15967 644.25595 568.01187 553.99998 666.58398 466.875c-85.00816 14.89038-149.26165 18.48851-200.56445 14.4043-45.1152-3.59162-80.40237-13.40501-110.0293-25.15039zm42.92579 22.92187c22.57573.10326 52.52779 2.34383 83.49804 6.2461 65.74558 8.28415 118.15335 21.65893 117.05469 29.87304-1.09829 8.2139-56.30922 5.07893-122.05273-3.20508-65.73948-8.28354-117.1185-18.57868-116.02735-26.79296.53448-4.02047 14.07178-6.22853 37.52735-6.1211zM1117.5 492.5c2.4011 8.40385 4.2266 18.24941 5.4746 28.84375v.36133c7.3876-1.36391 16.4655.0837 27.2324 5.62304l-21.2675-21.26757a1.50015 1.50015 0 011.0449-2.57617 1.50015 1.50015 0 011.0761.45507l21.2676 21.26758c-5.5291-10.74776-6.9807-19.81297-5.6289-27.19336-10.7286-1.24895-20.7021-3.08593-29.1992-5.51367zm130 0c-8.4251 2.40718-18.2988 4.23414-28.9238 5.48242h-.2793c1.3613 7.38557-.087 16.46062-5.6231 27.22266l21.2657-21.26563a1.50015 1.50015 0 011.0312-.45312 1.50015 1.50015 0 011.0898 2.57422l-21.2675 21.26757c10.7565-5.53399 19.8272-6.98416 27.2109-5.62695v-.17187c1.2486-10.6649 3.081-20.57644 5.4961-29.0293zm-853.59961 15.25781c20.38428.10329 47.42876 2.34386 75.39258 6.2461 59.36368 8.28422 106.68388 21.65899 105.69141 29.87304-.99271 8.21355-49.91699 8.15671-109.27735-.12695-59.36371-8.28422-106.68391-21.659-105.69141-29.87305.48636-4.01928 12.70935-6.22659 33.88477-6.11914zm7.69531 34.67969c15.09367-.0753 32.61454.81411 50.47852 2.5625 51.50146 5.04084 94.00823 14.75226 93.67578 23.00391-.32891 8.2521-42.34749 10.85536-93.84961 5.81445-51.50146-5.04084-92.98284-15.81671-92.65039-24.06836.20345-5.08688 15.52034-7.17888 42.3457-7.3125zm590.81446 21.09375c-26.28817 17.83124-58.00395 39.71623-85.84375 65.82227L1063.252 755.79883c5.9292-6.64494 11.8308-13.34093 17.6972-20.10156C1043.5709 740.31699 1042.225 686.12754 1005 670c53.4509-24.54202 74.1653 5.69528 79.6582 61.40234 18.288-21.22222 36.2025-43.13214 53.4609-66.25-50.4965-31.89003-99.3677-65.63189-145.70894-101.62109zm92.24804 167.87109c-1.2353 1.43353-2.4703 2.86748-3.709 4.29493 1.3064-.16146 2.6533-.388 4.0508-.69727-.1038-1.21628-.2241-2.40447-.3418-3.59766zm-21.4062 24.39649l1.3242 1.02344C1092.8236 758.22045 1130 765 1130 765c33.2353-17.40792 57.5278-36.95014 78.082-57.38477-19.9562-11.65548-39.7017-23.55345-59.2109-35.71875-15.5528 20.88792-31.6462 40.7815-48.0664 60.07227 34.429-15.14174 49.9983-46.37972 66.4785-4.63672-32.1431-2.07452-62.02 44.58146-67.2129 5.5-7.149 8.38604-14.3562 16.66276-21.6113 24.85352zM399.88477 574.98828c12.13924-.0753 26.23048.81416 40.59765 2.5625 41.42116 5.04089 74.78321 15.81675 74.51563 24.06836-.26463 8.25206-34.05885 10.85531-75.48047 5.81445-41.42116-5.04089-74.78321-15.81675-74.51563-24.06836.16364-5.08693 13.30756-8.24338 34.88282-8.37695zm814.90823 12.6836l21.2675 21.26757a1.50015 1.50015 0 11-2.121 2.1211l-21.2657-21.26563c5.5369 10.76367 6.9837 19.84044 5.6211 27.22656h.3223c10.6094 1.24816 20.4685 3.07443 28.8828 5.47852-2.4278-8.49731-4.2627-18.47029-5.5117-29.19922-7.3807 1.35234-16.4468-.0994-27.1953-5.6289zm-64.5879.002c-10.7501 5.53028-19.8161 6.98044-27.1973 5.62695v.0723c-1.2488 10.70195-3.0853 20.64836-5.5078 29.12695 8.4975-2.42785 18.4701-4.26471 29.1992-5.51367-1.3518-7.38039.1-16.44561 5.6289-27.19336l-21.2676 21.26758a1.50015 1.50015 0 11-2.121-2.1211zM399.95117 608.2207c7.75591-.014 16.33902.59569 25.04883 1.7793 30.51033 4.14665 55.19775 16.74619 55.24414 25 .0491 8.25469-24.64792 11.5847-55.16016 7.4375-30.51033-4.14665-55.28173-14.19933-55.32812-22.45312-.0324-5.62262 11.68692-11.73096 30.19531-11.76368zm2.94141 36.28321c3.92832-.0157 8.00124.15115 12.10742.49609 25.08573 2.10744 44.77796 7.02839 45.42188 14.97852.64298 7.94981-19.17087 12.68576-44.25586 10.57812-25.08573-2.10744-45.94398-10.26081-46.5879-18.21094-.52278-6.4668 13.79255-7.76393 33.31446-7.84179zm-6.3711 30.78125c1.53788.001 3.10151.0612 4.67383.17968 15.24356 1.1523 28.12847 7.43255 28.7793 14.02735.6519 6.59512-11.17778 11.00764-26.42188 9.85547-15.24356-1.1523-28.12847-7.43255-28.77929-14.02735-.57317-5.81151 8.60794-10.04793 21.74804-10.03515zm-2.7207 30.4707c.97501.002 1.96625.0499 2.96289.14453 9.66123.91446 17.82809 5.89851 18.24219 11.13281.4126 5.23472-7.08576 8.73687-16.74805 7.82227-9.66123-.91446-17.82809-5.89851-18.24219-11.13281-.3645-4.61356 5.45528-7.97697 13.78516-7.9668zm906.19922.0781l-34.2773 2.85547c.2249 20.00253-6.7832 39.15319-30.7188 56.31055 24.0241 2.30082 45.4719 10.59792 60 35-9.9971 24.98116-26.6502 40.00143-50 45 19.6816 21.91005 28.1768 47.18324 30.0293 74.45312l.01.008 24.957 11.09375zm-167.2656 64.20508c.2372.44647.4708.89347.7051 1.33985-.2343-.44637-.4679-.89339-.7051-1.33985zm3.041 5.88282c.083.16606.171.33199.2539.49804-.083-.16604-.1705-.33202-.2539-.49804zm2.6758 5.48437c.2147.45253.425.90499.6367 1.35742-.2117-.45239-.4219-.90493-.6367-1.35742zm2.455 5.32422c.1795.40036.3641.80089.5411 1.20117-.177-.40029-.3615-.80081-.5411-1.20117zm2.5958 5.98437c.2099.50184.413 1.00415.6191 1.50586-.2062-.5018-.4092-1.00393-.6191-1.50586zm2.0703 5.11719c.1975.50277.4 1.00516.5937 1.50781-.1937-.50252-.3962-1.00516-.5937-1.50781zm2.3418 6.1875c.1922.53072.3764 1.06121.5644 1.5918-.188-.53055-.3722-1.06112-.5644-1.5918zm1.7324 4.96485c.2042.60477.4106 1.20984.6094 1.81445-.1988-.60461-.4051-1.20971-.6094-1.81445zm2.0273 6.26562c.1846.60177.3579 1.20308.5371 1.80469-.1792-.60139-.3525-1.20313-.5371-1.80469zm1.4688 5.00977c.1799.63781.3593 1.27644.5332 1.91406-.174-.63786-.3532-1.27602-.5332-1.91406zM377.5 842.5c-4.42321 0-9.31831 2.00257-14.86719 9.24023C357.08394 858.97789 352.5 871.0223 352.5 885c0 13.9777 4.58394 26.0221 10.13281 33.25977C368.18169 925.49743 373.07679 927.5 377.5 927.5c4.42321 0 9.31831-2.00257 14.86719-9.24023C397.91606 911.0221 402.5 898.9777 402.5 885c0-13.9777-4.58394-26.02211-10.13281-33.25977C386.81831 844.50257 381.92321 842.5 377.5 842.5zm-.27344 4.79492c2.95574.0879 5.94922 5.08008 5.94922 10.70508 10.93128-.11104 14.67749 3.31056 5.67578 13 13.69744 3.7436 10.6454 8.69968 2.83789 14 7.80751 5.30032 10.85955 10.2564-2.83789 14 9.00171 9.68944 5.2555 13.11104-5.67578 13 0 10-9.4596 18-11.35156 0-10.93128.11104-14.67748-3.31056-5.67578-13-13.69744-3.7436-10.6454-8.69968-2.83789-14-7.80751-5.30032-10.85955-10.2564 2.83789-14-9.0017-9.68944-5.2555-13.11104 5.67578-13 .82773-7.875 3.10344-10.77344 5.40234-10.70508zM729.58398 852.5l-75.1914 86.93945 43.0039-.041L744.44531 885H840l-15-32.5zm29.72266 65l-19.23047 22.23633 136.17383.21875L860 917.5zm-104.13476 52.41992l-315.75977.17969c2.43984 2.47881 4.98787 4.87423 7.56641 7.28906 15.37025 14.39437 29.32058 28.43253 41.91015 42.12693 1.06974-4.4442 6.04965-11.1309 16.11133-19.5156-30-25-15-34.99999 15-15 30-19.99999 45-10 15 15 30 25 15 35-15 15-11.06914 7.3794-20.08451 10.6644-25.5625 10.6289 1.31057 1.4627 2.62767 2.9262 3.90625 4.3809l256.41797-.1328zm-170.01172 4.44531C490.60938 974.21875 499.75 977.5 511 985c30-19.99999 45-10 15 15 30 25 15 35-15 15-30 20-45 10-15-15-18.75-15.625-19.92188-25.39063-10.83984-25.63477zm91 0C581.60938 974.21875 590.75 977.5 602 985c30-19.99999 45-10 15 15 30 25 15 35-15 15-30 20-45 10-15-15-18.75-15.625-19.92188-25.39063-10.83984-25.63477z"/>
  </symbol>
  <symbol id="e" preserveAspectRatio="none" viewBox="0 0 1300 2000">
    <path d="M499.67383 0c99.15705 212.42554 198.84177 423.78371 391.40429 444.24805L557.50781 0zM299.89844 59.855469C265.54099 182.85387 187.08454 297.85994 240.09961 458.2793L349.875 372.94531C322.20549 333.64118 300 282.28964 300 255c0-20 5.00324-149.9992 5-155-.001-2.004308-2.41143-19.27436-5.10156-40.144531zM899.91016 454.8418C746.55122 593.77022 578.78424 763.04072 429.50781 939.46875l40.84766.54297c125.19795-152.93596 293.78884-318.99424 448.59961-458.63281zm65.79101 87.45703c-28.87179 19.18723-64.12524 44.12835-93.97851 75.52344l25.55078 20.04296c30.22964-29.84438 65.96002-54.59002 95.59961-73.97851-9.28135-6.87909-18.47109-14.10656-27.17188-21.58789zM685 755L525.10156 939.88281 570 940l129.86133-152.5h106.78906L805 755z"/>
  </symbol>
  <symbol id="f" preserveAspectRatio="none" viewBox="0 0 1300 2000">
    <path stroke="#44F" stroke-linecap="round" stroke-linejoin="round" stroke-width="6" fill="none" d="M435 885a57.5 75.000002 0 01-57.5 75.00001A57.5 75.000002 0 01320 885a57.5 75.000002 0 0157.5-75 57.5 75.000002 0 0157.5 75v0m-17.92282 55h458.94909m-567.75558 0h28.75722m2.46306 30h561.98686M131.84482 543.19629l219.18969-168.60746M.00006931 644.61533L44.832165 610.1291M1138.1663 665.18229c-60.1737-37.99916-118.041-78.62927-172.87029-122.72471m243.28359 165.44975c-20.1878-11.78458-40.1599-23.81534-59.8906-36.12132M557.51806-.00035577L965.44559 542.57786M1299.7291 1059.765c-68.4773 39.2778-116.7334 76.5733-164.2838 131.8131-44.9491-77.8482-93.9175-130.6069-160.20897-192.68943-76.05982-71.23062-114.27421-131.59148-129.3711-180.42578-15.09688-48.8343-8.90849-86.60287 7.94922-120.96875 28.31708-57.72677 91.51285-102.35515 139.0695-133.86354M499.68528.03748108C598.83742 212.45251 698.51437 423.77834 890.34164 443.851M364.36489 812.31243c-44.28765-126.89879-35.85603-269.68219-43.02847-408.13518 76.71711 39.85219 163.35704 77.44074 457.8821 5.76082C644.587 533.12731 501.69292 642.05444 392.45651 811.84681M355.97656 456.125c29.62956 11.74764 64.92126 21.56216 110.04297 25.1543 51.30556 4.08443 115.56309.48617 200.57813-14.40625-98.57798 87.12824-198.39177 177.48156-282.2461 298.86133-24.96545-94.92731-24.7974-201.06283-28.375-309.60938v0m511.36596-15.7185C719.62961 574.07588 560.4386 730.57461 436.09373 879.43791M223.89186 472.86906c-.82324 183.16931 37.98603 343.48203 98.11552 466.27071m-130.5094-442.42662c2.08648 150.92196 30.40471 286.39171 75.55251 398.73891M429.507 939.46794c149.27643-176.42803 317.04458-345.69831 470.40352-484.62673M470.35494 940.01166C595.55289 787.0757 764.14488 621.01728 918.95565 481.37871M525 940l160-185h120.41872M567.92551 940.0502L699.86133 787.5h106.78892M611.46541 939.39021L714.72266 820h97.2642M654.39213 939.43943L729.58398 852.5h93.89714m-126.0845 86.89902L744.44531 885h95.04566m-99.41576 54.73575L759.30664 917.5H860m46.39152-288.07707l157.39368 127.25443M871.92369 617.813l171.32041 139.19782M459.61865 481.34795C414.86903 573.51288 406.45192 669.62669 385 765M303.65592-.00221915C259.09343 162.78907 138.61386 327.07777 209.42337 483.4732m30.6766-25.19366c-53.01507-160.41936 25.44059-275.42549 59.996-399.319458M805.81085 330.134c14.88787-6.44544 30.42237-12.16006 46.14865-17.2138M.09725143 902.73906C71.866196 860.06685 117.03718 820.61709 170 750c50 100 99.8567 155.1639 176.97865 227.3892 281.56105 263.6842 94.15072 409.6105-13.08443 480.4695M377.5 842.5c4.42321 0 9.31831 2.00257 14.86719 9.24023C397.91606 858.97789 402.5 871.0223 402.5 885c0 13.9777-4.58394 26.0221-10.13281 33.25977C386.81831 925.49743 381.92321 927.5 377.5 927.5c-4.42321 0-9.31831-2.00257-14.86719-9.24023C357.08394 911.0221 352.5 898.9777 352.5 885c0-13.9777 4.58394-26.02211 10.13281-33.25977C368.18169 844.50257 373.07679 842.5 377.5 842.5v0M1130 765c16.8191 30.21345 26.6544 60.2083 30 90 47.2312 18.32372 82.8871 51.83723 115 90 2.3419-37.0436-4.2974-71.38724-30-100 23.3498-4.99857 40.0029-20.01884 50-45-14.5281-24.40208-35.9759-32.69918-60-35 44.8752-32.16719 30.2665-71.33926 20-110-32.9633 38.74398-63.8666 77.97963-125 110v0m170-59.16666l-34.3239 2.86032m34.3236 221.86178l-26.1711-11.63161m-81.1017-82.49825c37.6985 20.41997 54.5672 59.51932 65.2796 89.01033m-75.0379-140.51261c26.555-.86899 48.4536-6.17171 77.0314 15.0767-14.6369 19.51581-30.1358 29.72065-67.2011 34.6433m41.8298-155.48539c-1.9945 40.38926-12.7829 83.27561-52.2037 104.5774m-20.0819-38.31077c26.5383 39.87481 36.0743 80.87688 26.979 123.43436M1130 765s-82.1675-15-95-5c-12.8325 10-32.9691 31.30714-40 40-31.97044 39.52731 3.64509 49.72935 20 30m35-30c-59.31161 25.45028-64.22618 120.61499 20 25m-28.8067 28.52948c-14.9444 32.29436.7581 60.30105 58.5-5.24847m-37.508 34.3097C1040.9944 921.29246 1103.755 918.14402 1160 855m-96.7476-99.20039c33.572-37.62441 66.2866-76.82735 96.4461-120.73492m-81.2403 122.62181c32.4929-36.68328 64.0954-75.00591 93.2554-117.82589M1085 735c-4.9523-58.0017-25.4042-90.06768-80-65 38.526 16.69119 38.6175 74.15849 80 65v0m-80-65c37.8073-6.25375 56.1399 40.79694 80 65m15-2.66831c35-15 50.6726-47.07119 67.2824-5-32.2824-2.08351-62.2824 45-67.2824 5v0m.0662.51364c26.3257 8.26747 52.4616-23.9051 67.2162-5.51364m-12.2823-142.33168C1080.0001 630 1080 484.99999 1155 530c-45-75 100-75 55 0 75-45 75 100 .0001 55 45 75.00001-100.0001 74.99999-55 .00001v0M1242.5 557.5c-60 0-60 0-60-60 0 60 0 60-60 60 60 0 60 0 60 60 0-60 0-60 60-60v0m-119.5257-36.15662c-1.248-10.59434-3.0726-20.43952-5.4737-28.84337 8.5766 2.45046 18.6544 4.30045 29.4977 5.54996m-.2429 118.92816c-10.7509 1.24908-20.7424 3.08971-29.255 5.52188 2.4225-8.47859 4.2581-18.42426 5.5069-29.12621m118.9412-.3881c1.2496 10.84959 3.1002 20.93331 5.5519 29.5143-8.4143-2.40409-18.2735-4.23021-28.8829-5.47837m-.0414-119.03844c10.625-1.24828 20.4988-3.07601 28.9239-5.48319-2.4151 8.45286-4.2469 18.3639-5.4955 29.0288M357.95908 386.26136c-4.7848-2.30618-9.52375-4.6875-14.28345-7.12611m404.39332 4.80377c-125.61776 29.14912-209.18032 36.59868-268.27701 33.13924m-123.80171 39.05065c29.62693 11.74538 64.9141 21.55877 110.0293 25.15039 51.3028 4.08421 115.55629.48608 200.56445-14.4043C568.01187 553.99998 468.15967 644.25595 384.25 765.71289c-25.01163-94.80542-24.71073-201.03641-28.25977-309.58398v0M85 135c10.787262 31.12992 5 90 35 90 65 0 20-95-35-145-55.000004 50-100.000004 145-35 145 30 0 24.21273-58.87008 35-90v0M40 285s0-10 10-10c12.88094 0 15 45-10 45-34.999996 0-29.999996-70 5-70 30 0 40 50 40 50s10-50 40-50c35 0 40 70 5 70-25 0-22.88094-45-10-45 10 0 10 10 10 10m-10-10c-55 2.66831 15 250 14.49097 296.289C134.16784 600.67311 125 630 85 630s-49.167837-29.32689-49.490969-58.711C35 525 105 277.66831 50 275m20-10.01642v-56.65025m30 56.8555v-56.44499m3.20611 418.64879C121.81764 632.48836 135 645.16656 135 660c0 19.32997-22.38576 35-50 35-27.614237 0-50-15.67003-50-35 0-14.8303 13.176786-27.50627 31.782083-32.60414m-.850851 65.07974C41.674852 699.57662 35 720.74035 35 740c0 36.24391 13.136211 96.133 20.364326 126.34321m73.005024-65.66617C132.14739 778.91407 135 756.88968 135 740c0-19.39937-6.77205-40.73054-31.46191-47.67672M256.89224 885h6.38602M.00011417 884.99999L28.737098 885m216.834472-15h11.90122m-257.47276477.00002L51.088175 870m182.582165-15h18.57752M.00004161 854.99999L52.539543 855m170.390677-15h24.09272m-247.02286392.00001L49.346532 840m163.424108-15h29.89819m-242.66878766.00002L46.443795 825M203.1916 810h34.54258m-237.7341759.00002L43.541058 810m150.942332-15h38.89668m-103.91799 0h5.22493m-134.68704846.00001L40.638321 795m145.427129-15h42.96051m-97.24169 0h14.51368m-146.29798173.00001L38.316131 780m139.911929-15h46.73407m-91.14595 0h24.67327M10 765h26.284215m98.402795-15h86.50156M10 750h24.542573m100.434707-15h83.01828M15 735h20.12312m97.53197-15H205m-190 0h22.844594M155 705h45m125-195c-11.82334-17.57111-24.45521-31.94743-45.42097-47.16261-21.67788-15.73198-32.01525 9.6364-23.86278 22.70472M325 540c-13.68399-15.7169-40.72661-39.31758-62.25684-51.80699-20.39713-11.83211-26.52283 15.09906-9.53546 27.99468m73.44133 56.35104c-13.68399-15.7169-40.42328-39.85576-62.25684-51.80699-33.04187-18.08643-43.83934 14.15892-2.74316 31.80699m68.03301 79.60586c-13.68399-15.7169-40.42328-39.85576-62.25684-51.80699-30.81157-16.86561-37.65608 16.8659-5.11631 35.80661m65.75875-18.45644c-13.86078-13.59047-33.31597-27.70524-50.77313-39.51278-22.07438-14.9305-34.10496 4.47364-22.83565 17.22609m77.7369 83.98727c-13.77031-13.23256-32.62008-26.88451-49.58329-38.35795-24.04479-16.26322-36.17268 12.27173-19.25152 25.31598m72.11968 40.25996c-16.23688-12.96392-39.96711-26.86214-58.05543-36.26874-31.2697-16.26141-36.88691 20.47944-3.29829 37.12122m65.3155 22.48474C293.812 671.34406 241.20364 684.64228 285 715m60.57813 28.85785c-49.78299-42.23381-140.14002-42.27022-51.45386 5.50004m65.02952 48.06945c-62.84596-40.07136-141.73873-29.44114-43.89688 10.66083m40.89528 7.62772c-43.41581-18.1629-92.79129.20988-43.97099 13.65755m23.61529 4.1773c-36.46249-11.38361-55.92576 9.42664-11.42381 20.21059m-.73532-386.3746c-7.1925-7.58612-15.51039-14.89158-25.85855-22.4014-17.52111-12.71535-26.71907.32727-25.12324 12.4885m49.5032-29.24675c-1.31784-1.00168-2.67007-2.00587-4.05887-3.01374-19.41173-14.0874-28.60717 3.4419-24.22651 16.36102m57.62831 327.77232c-41.8286-32.62324-87.13007-22.98664-57.82646 2.59886m102.8346 33.08844c97.55186 1.04019 65.93584 25.61549 21.19412 25.63392m-7.49987-44.95206c31.87867-11.92022 60.58013-9.17207 74.95842-1.62887 16.81695 8.82258 14.04006 24.2047-26.16419 30.34906m-28.44846-56.70413c58.57662-11.0001 103.69453 13.94896 55.48459 26.1888m-34.41102-54.31677c67.42086-18.09697 125.45489 10.74224 49.42624 33.66324m-31.89741-55.6497c69.25339-23.47062 135.42699 4.47512 67.15155 28.14525m-39.26907-60.02878c50.50234-8.00778 88.6752 9.66559 55.551 28.0217m-38.52288-47.18849c77.25396-19.94453 157.95502 17.262 48.7626 27.75334m-11.91017-66.01013c57.1762-5.00205 100.00874 18.02731 40.2256 35.03407m-22.25012-52.40507c75.24789-19.79781 151.84194 14.60918 51.22446 34.33609m-23.27522-61.11911c55.64482-7.64299 102.46778 11.7471 64.24628 28.76475m-40.34868-50.8132c71.56974-16.51587 140.66537 14.62009 53.45997 34.06378m-13.46325-70.60184c57.1151-4.52529 99.00079 18.87447 36.45506 35.78648m-12.8022-56.7677c73.88041-16.89549 144.8643 16.89901 43.68109 36.08147m-5.27264-69.84384c57.76542-5.50387 101.75016 17.65976 42.02455 34.7974m-16.38967-57.85894c68.01755-11.92015 127.59071 17.4385 43.80212 36.02686m-146.681-199.92945C640.4516 285.47932 635.59316 297.26013 610 295c-14.37233 81.30224-73.77303 98.38804-130 120 0 0-19.41945 15.64589-29.41945 15.64589C435.58055 430.64589 425 425 420 425s-10 5-25 5-30-25-40-50c-30-40-55-96.04455-55-125 0-20 5.003-149.9992 5-155-.002-3.089335-5.72781-42.445846-10.1037-72.07356m328.03691 212.395C616.61632 250.552 609.19352 264.74236 615 265c2.73428.12132 6.96971-10.37759 10.24354-19.90618m278.91664 249.72066l50.56379 54.17549m-64.73366-40.78607l48.73454 52.21558m-63.3769-39.33239l48.01937 51.44933m-61.73041-37.5683l46.15447 49.45122m-60.77483-36.54447l45.96336 49.24646m-60.14689-35.87167l35.28817 37.80876m-49.45804-24.41934l24.02599 25.74214m-38.82382-13.02552l17.84203 19.11646m-31.64333-5.33213l8.92784 9.56554M482.75862 925h55.41872m-42.28243-15h55.00821m-42.69294-15h55.82923m-42.69294-15h55.41872m-42.28243-15h55.41872m-36.94582-20H585m205-25v32.5M765 820v32.5M740 820v32.5m-36.73235-19.23235l22.578 22.578m-41.75698-1.75698l23.39901 23.39901m-41.55172-1.55172l22.78325 22.78325m-40.52545-.52545l22.578 22.578m-41.55173-1.55173l20.73071 20.73071m141.34525-629.19548c15.62961-6.29692 31.83381-11.83473 48.11454-16.69002m-63.25389-3.71391c15.84539-6.35519 32.2728-11.93292 48.76488-16.81275m-64.09929-3.05298c16.18061-6.50419 32.97255-12.19625 49.8241-17.16102m-64.09819-1.09592c16.42632-6.7965 33.54246-12.73644 50.75899-17.91046m-58.18617-5.14411c11.71799-4.608 23.73402-8.79725 35.84163-12.5995m-48.4158-8.34685c8.46394-3.2756 17.07495-6.33535 25.75602-9.1911m-40.61657-10.69747c5.39484-2.00758 10.85695-3.94932 16.37032-5.82515m172.35226-88.082239c-51.86252 19.821979-103.68054-24.66227-138.97662-.809817C715 125.00001 755 185 789.33498 165.18883 821.13528 146.84017 790 105 775 115c-9.30261 6.20174-14.88842 18.30946-10 25 6.18042 8.45885 10.48873 9.62814 20 5m116.46652-47.86697c-39.70537 38.32337-22.11989 103.87925-58.72584 125.38752-48.31736 28.38945-85.23798-33.55302-52.57003-56.00692 30.25635-20.79631 54.6061 25.32412 39.1205 34.55428-9.60379 5.72429-22.93675 5.55043-26.86936-1.74304-4.972-9.22111-4.17161-13.61293 4.10189-20.20332M765 180l90-60m-10 40c-10-10-45.467-11.35662-55 5 22.00764-11.03808 34.76336-24.75676 25-45m-20 110c25 30 50 20 75 10 24.05541 32.7653 64.66095 38.66637 105 45M725 130c-10-20 15-45 30-55-5.85095-23.051038 2.70702-48.99013 11.59362-74.99509458M700 90c10-25 25-25 25-25-8.48271-38.172217 3.28893-47.867055 8.18679-64.93099617M427.96416.01822477C445.06535 51.748024 483.31343 78.400493 539.31946 83.994433M446.67053.04362022C462.63103 38.843647 492.03631 61.699978 533.14043 70.683071M461.24526.01603427C475.22521 27.447203 496.92922 45.718691 525.58366 55.74792M476.99588.10806452C487.38028 16.453559 500.99836 28.964352 517.63646 37.893813M371.26432.04443925C356.34418 40.196712 340.91798 80.075485 304.69652 100.28589M355.60874.04353776C343.34293 31.804187 329.13875 61.845937 302.67098 80.298673M339.57059.02060224C329.73362 23.196287 317.89132 44.53011 299.71459 59.883794M325.15652.08430598C317.46458 14.722402 308.27692 27.964826 296.26758 38.544057M305 120c41.1016-25.066138 61.56092-14.28714 80 0 20 55-15 110-14.41945 151.6763C370.79614 287.15304 382.30751 285.12486 390 285c4.99934-.0811 15 10 15 10M305 125c29.58587-20.97635 55.47603-17.50669 80-5m45 125c20 0 20 30 5 30-40 5-40-10-5 0m-65 40v10l5-5-5-5v0m90 5l5-5v10l-5-5v0m-85 0s5 5 10 5 5.24415-4.00984 12.32219-4.4848C400 320 400 325 405 325c5 0 15-10 20-10s15 5 20 5h10m-65 20c3.06957 28.45212 45.6136 8.68856 45 5-5 5-44.77199 31.85105-45-5v0m40-205c51.53607-36.718861 85.86501-16.18211 120 5-35.40475-25.98218-85-45-120-5v0m110 25c-15 0-36.47047-25.38456-56.38602-23.54863C453.79885 139.1999 445 175 430 180c17.93464-21.40819 33.7944-28.21941 48.07024-28.06507C507.27438 152.25068 515 185 550 175m-120 5c15-10 32.80939 10.04302 45.17423 9.94542C504.08195 189.71723 519.49385 175 530 175m-150 0c-20 0-30.87367-19.1648-47.03192-20.29027-12.3413-.85961-29.19452 12.61246-29.19452 17.61246 0 7.07107 11.23734 20.70784 22.74316 23.25836C342.90794 199.21402 362.81244 175.3491 380 175v0m-75-10c22.64276-42.75014 64.95345-9.49214 65-5m450 105c15 15 35 10 45 5 20.5191 14.6565 42.75671 20.72048 62.68286 23.22939m-75.81633 19.10768C895.10619 299.11787 938.83136 290.34833 975 285 924.90149 188.22308 899.90057 94.152754 874.11725-.00195137M851.86653 312.33707C895.10619 299.11787 938.83136 290.34833 975 285 924.90149 188.22308 899.90057 94.152754 874.11725-.00195137M851.01315 311.99775L635.36748-.0002409M927.65339 293.26472C907.75671 290.72048 885.5191 284.6565 865 270c-10 5-30 10-45-5"/>
  </symbol>
  <symbol id="g" preserveAspectRatio="none" viewBox="0 0 1300 2000">
    <path stroke="#44F" stroke-linecap="round" stroke-linejoin="round" stroke-width="3" fill="none" d="M986.60333 811.20184l17.52527 26.83701m3.5763 5.47663l14.2883 21.88014m-28.50289-64.52787c12.59499 20.81314 26.36539 39.79428 40.67199 57.93996m3.6811 4.63683c6.0574 7.57938 12.2001 15.02588 18.3803 22.41378m3.5795 4.26824c4.9357 5.87225 9.8895 11.71638 14.8372 17.56998m-72.3509-116.41908c25.6547 42.89167 56.3312 77.95704 86.5273 113.77117m-77.4962-122.80446c26.5981 44.89853 58.7236 81.18275 90.1523 118.55299m-83.2624-125.39247C1045.4382 820.51985 1078.1971 857.01507 1110 895M91.990234 409.08984c5.346491 34.39969 12.364566 69.89746 17.978516 99.54297 5.61395 29.64551 9.60751 54.84672 9.52344 62.49219-.14502 13.18721-2.60383 25.09508-7.35157 32.2207C107.39289 610.47133 101.33414 615 85 615c-16.334139 0-22.392887-4.52867-27.140625-11.6543m37.371094-91.92187c2.783382 14.69817 5.162021 28.28252 6.812501 38.99023 1.65048 10.70771 2.46055 19.51658 2.44922 20.54688-.12561 11.42229-3.03694 21.37127-4.833987 24.06836-1.554361 2.33286-1.96098 2.67133-3.316406 3.33203C94.986371 599.02203 91.780811 600 85 600m14.244141 41.85938C113.48363 645.75807 120 654.05348 120 660c0 3.87456-2.13436 8.18273-8.24609 12.46094C105.64218 676.73915 95.96981 680 85 680c-10.969809 0-20.642176-3.26085-26.753906-7.53906m41.230468 34.30273c8.835718 2.48582 12.847888 6.43575 15.929688 11.99805C118.48805 724.32402 120 732.04575 120 740c0 15.20071-2.70618 36.77501-6.41016 58.11133M102.94922 660.2832C99.903483 662.33803 92.860098 665 85 665c-7.997241 0-15.198086-2.76015-18.152344-4.82812m35.437504 65.85937C103.52282 728.2651 105 733.94656 105 740c0 13.42041-2.56634 34.6744-6.189453 55.54492M726.75998 368.27894c-86.90567 19.39284-152.06738 27.72857-201.92131 29.29581m190.77442-40.98581c-65.67223 14.18976-118.49041 21.87286-161.44462 25.04168m148.87046-37.37117c-49.76763 10.38288-91.8849 16.91189-127.75629 20.52287m115.50486-33.01331c-38.30305 7.6982-71.90839 13.04175-101.50758 16.49148m90.85814-29.38806c-30.03631 5.82677-57.08899 10.16495-81.51547 13.25269m71.58257-26.35948c-23.347 4.36958-44.8345 7.81564-64.64196 10.45774m54.00966-23.50827c-18.04772 3.23925-34.94556 5.91034-50.78275 8.07274M390 380c11.94547-13.95601 27.22073-12.69836 45 0m5-185c10 15 30 15 45 15m-175-5c50 25 60-30 70-30m-29.98005-12.94469c1.14299 3.17833 1.7863 6.76631 1.7863 10.56373 0 13.03628-7.58139 23.60427-16.9335 23.60427s-16.93349-10.568-16.93349-23.60427c0-5.79795 1.49965-11.10766 3.98776-15.21654m166.6313-3.79563c1.90775 3.81995 3.02626 8.46304 3.02626 13.4703 0 13.03628-7.58139 23.60427-16.9335 23.60427s-16.93349-10.568-16.93349-23.60427c0-4.03258.72545-7.82898 2.00436-11.14943"/>
    <use xlink:href="#a" height="90" transform="matrix(.76604 -.62479 .64279 .7446 1124.60255762 929.6087461)"/>
    <use xlink:href="#a" height="90" transform="matrix(.76604 -.62479 .64279 .7446 1130.60255762 1037.6087461)"/>
    <use xlink:href="#a" height="90" transform="matrix(.76604 -.62479 .64279 .7446 1032.60255762 1027.6087461)"/>
    <use xlink:href="#a" height="90" transform="matrix(.76604 -.62479 .64279 .7446 958.60255762 941.6087461)"/>
    <use xlink:href="#a" height="90" transform="matrix(.76604 -.62479 .64279 .7446 854.60255762 845.6087461)"/>
    <use xlink:href="#a" height="90" transform="matrix(.76604 -.62479 .64279 .7446 833.60255762 720.6087461)"/>
  </symbol>
  <rect width="239" height="335" x="-119.5" y="-167.5" rx="12" ry="12" fill="#fff" stroke="#000"/>
  <use width="164.8" height="260.8" x="-82.4" y="-130.4" xlink:href="#b"/>
  <use transform="rotate(180)" width="164.8" height="260.8" x="-82.4" y="-130.4" xlink:href="#b"/>
  <use width="164.8" height="260.8" x="-82.4" y="-130.4" xlink:href="#c"/>
  <use transform="rotate(180)" width="164.8" height="260.8" x="-82.4" y="-130.4" xlink:href="#c"/>
  <use width="164.8" height="260.8" x="-82.4" y="-130.4" xlink:href="#d"/>
  <use transform="rotate(180)" width="164.8" height="260.8" x="-82.4" y="-130.4" xlink:href="#d"/>
  <use width="164.8" height="260.8" x="-82.4" y="-130.4" xlink:href="#e"/>
  <use transform="rotate(180)" width="164.8" height="260.8" x="-82.4" y="-130.4" xlink:href="#e"/>
  <use width="164.8" height="260.8" x="-82.4" y="-130.4" xlink:href="#f"/>
  <use transform="rotate(180)" width="164.8" height="260.8" x="-82.4" y="-130.4" xlink:href="#f"/>
  <use width="164.8" height="260.8" x="-82.4" y="-130.4" xlink:href="#g"/>
  <use transform="rotate(180)" width="164.8" height="260.8" x="-82.4" y="-130.4" xlink:href="#g"/>
  <use xlink:href="#h" height="32" x="-114.4" y="-156"/>
  <use xlink:href="#a" height="26.769" x="-111.784" y="-119"/>
  <use xlink:href="#a" height="55.68" x="36.088" y="-132.16"/>
  <g transform="rotate(180)">
    <use xlink:href="#h" height="32" x="-114.4" y="-156"/>
    <use xlink:href="#a" height="26.769" x="-111.784" y="-119"/>
    <use xlink:href="#a" height="55.68" x="36.088" y="-132.16"/>
  </g>
  <use xlink:href="#i" stroke="#44F" fill="none"/>
</svg>