<svg fill="#EF4444" xmlns="http://www.w3.org/2000/svg" viewBox="0 0 512 512">
  <path d="M256.006 85.344c6.741 0 13.376.491 19.925 1.259.469.043.939.021 1.408.085V1.077C270.278.501 263.216.01 256.006.01c-7.211 0-14.272.491-21.333 1.067v85.611c.469-.064.939-.043 1.408-.085 6.549-.768 13.184-1.259 19.925-1.259zM414.108 192h89.472C480.348 102.272 409.734 31.659 320.006 8.427v89.472c42.688 17.344 76.758 51.413 94.102 94.101zM192.006 97.899V8.427C102.278 31.659 31.665 102.272 8.433 192h89.472c17.344-42.688 51.413-76.757 94.101-94.101zM510.933 234.677h-85.611c.064.469.021.939.085 1.408.768 6.549 1.259 13.163 1.259 19.925 0 6.741-.491 13.355-1.259 19.904-.064.469-.021.939-.085 1.429h85.611c.576-7.061 1.067-14.144 1.067-21.333 0-7.21-.491-14.293-1.067-21.333zM377.99 294.72l.555-1.835c.064-.235.107-.469.171-.683 1.536-5.248 2.645-10.56 3.52-15.915.192-1.152.384-2.325.533-3.477.747-5.589 1.237-11.2 1.237-16.811s-.491-11.221-1.237-16.811a97.048 97.048 0 00-.533-3.477c-.875-5.355-1.984-10.667-3.52-15.915-.064-.213-.107-.448-.171-.683l-.555-1.835c-12.565-39.445-43.712-70.635-83.136-83.221l-2.219-.661c-.043 0-.085-.021-.149-.021-5.397-1.621-10.901-2.752-16.405-3.648-1.024-.149-2.048-.32-3.072-.469a127.778 127.778 0 00-34.005 0c-1.024.149-2.048.32-3.072.469-5.504.896-11.008 2.027-16.405 3.648-.064 0-.107.021-.149.021l-2.219.661c-39.424 12.587-70.571 43.776-83.136 83.221l-.555 1.835c-.064.235-.107.469-.171.683-1.536 5.248-2.645 10.56-3.52 15.915a97.048 97.048 0 00-.533 3.477c-.747 5.589-1.237 11.2-1.237 16.811s.491 11.221 1.237 16.811c.149 1.152.341 2.325.533 3.477.875 5.355 1.984 10.667 3.52 15.915.064.213.107.448.171.683l.555 1.835c12.565 39.445 43.712 70.635 83.136 83.221l2.219.661c.043 0 .085.021.149.021 5.397 1.621 10.901 2.752 16.405 3.648 1.024.149 2.048.32 3.072.469a127.778 127.778 0 0034.005 0c1.024-.149 2.048-.32 3.072-.469 5.504-.896 11.008-2.027 16.405-3.648.064 0 .107-.021.149-.021l2.219-.661c39.424-12.586 70.571-43.776 83.136-83.221zm-79.317-60.053c11.797 0 21.333 9.557 21.333 21.333v64c0 11.776-9.536 21.333-21.333 21.333H213.34c-11.797 0-21.333-9.557-21.333-21.333s9.536-21.333 21.333-21.333h64v-21.333h-64c-11.797 0-21.333-9.557-21.333-21.333v-64c0-11.776 9.536-21.333 21.333-21.333h85.333c11.797 0 21.333 9.557 21.333 21.333s-9.536 21.333-21.333 21.333h-64v21.333h64zM256.006 426.656c-6.741 0-13.376-.491-19.925-1.259-.469-.043-.939-.021-1.408-.085v85.611c7.061.576 14.123 1.067 21.333 1.067 7.211 0 14.272-.491 21.333-1.067v-85.611c-.469.064-.939.043-1.408.085-6.549.768-13.183 1.259-19.925 1.259zM320.006 414.101v89.472C409.734 480.341 480.348 409.728 503.58 320h-89.472c-17.344 42.688-51.414 76.757-94.102 94.101zM97.905 320H8.433c23.232 89.728 93.845 160.341 183.573 183.573v-89.472c-42.688-17.344-76.757-51.413-94.101-94.101zM86.613 275.925c-.768-6.549-1.28-13.184-1.28-19.925s.512-13.376 1.28-19.925c.043-.469.021-.939.085-1.408H1.088C.512 241.728 0 248.789 0 256s.512 14.272 1.088 21.333h85.611c-.064-.469-.043-.938-.086-1.408z"/>
</svg>