<?xml version="1.0" encoding="iso-8859-1"?>
<!-- Generator: Adobe Illustrator 19.0.0, SVG Export Plug-In . SVG Version: 6.00 Build 0)  -->
<svg version="1.1" id="Layer_1" xmlns="http://www.w3.org/2000/svg" xmlns:xlink="http://www.w3.org/1999/xlink" x="0px" y="0px"
	 viewBox="0 0 512 512" style="enable-background:new 0 0 512 512;" xml:space="preserve">
<g>
	<g>
		<g>
			<path d="M320,234.667h-42.667V192c0-11.782-9.551-21.333-21.333-21.333s-21.333,9.551-21.333,21.333v42.667H192
				c-11.782,0-21.333,9.551-21.333,21.333s9.551,21.333,21.333,21.333h42.667V320c0,11.782,9.551,21.333,21.333,21.333
				s21.333-9.551,21.333-21.333v-42.667H320c11.782,0,21.333-9.551,21.333-21.333S331.782,234.667,320,234.667z"/>
			<path d="M505.955,311.467c3.542-16.031,5.59-32.622,5.971-49.626c0.048-1.949,0.074-3.896,0.074-5.841s-0.025-3.892-0.074-5.841
				c-0.381-17.005-2.429-33.595-5.971-49.626L504.391,192h-0.457C480.78,102.043,409.957,31.22,320,8.066V7.609l-8.533-1.565
				c-16.031-3.542-32.622-5.59-49.626-5.971C259.892,0.025,257.945,0,256,0s-3.892,0.025-5.841,0.074
				c-17.005,0.381-33.595,2.429-49.626,5.971L192,7.609v0.457C102.043,31.22,31.22,102.043,8.066,192H7.609l-1.565,8.533
				c-3.542,16.031-5.59,32.622-5.971,49.626C0.025,252.108,0,254.055,0,256s0.025,3.892,0.074,5.841
				c0.381,17.005,2.429,33.595,5.971,49.626L7.609,320h0.457C31.22,409.957,102.043,480.78,192,503.934v0.457l8.533,1.565
				c16.031,3.542,32.622,5.59,49.626,5.971c1.949,0.048,3.896,0.074,5.841,0.074s3.892-0.025,5.841-0.074
				c17.005-0.381,33.595-2.429,49.626-5.971l8.533-1.565v-0.457C409.957,480.78,480.78,409.957,503.934,320h0.457L505.955,311.467z
				 M468.177,277.333h-42.835c0.429-3.436,0.746-6.906,0.967-10.403c0.01-0.152,0.019-0.304,0.029-0.456
				c0.089-1.466,0.159-2.937,0.211-4.413c0.012-0.336,0.028-0.672,0.038-1.008c0.049-1.679,0.08-3.362,0.08-5.053
				s-0.032-3.374-0.08-5.053c-0.01-0.337-0.026-0.673-0.038-1.009c-0.052-1.474-0.122-2.944-0.21-4.408
				c-0.01-0.154-0.019-0.309-0.029-0.463c-0.221-3.495-0.538-6.964-0.967-10.399h42.835c0.767,7.211,1.156,14.309,1.156,21.333
				S468.944,270.122,468.177,277.333z M459.56,192h-45.311c-17.318-42.778-51.471-76.931-94.248-94.248V52.441
				C386.344,73.28,438.72,125.656,459.56,192z M383.921,260.282c-0.008,0.256-0.019,0.511-0.029,0.766
				c-0.429,10.677-2.207,21.231-5.275,31.524l-1.262,4.234c-12.728,37.868-42.682,67.821-80.549,80.549l-4.234,1.262
				c-10.293,3.068-20.847,4.846-31.524,5.275c-0.255,0.01-0.51,0.021-0.766,0.029C258.857,383.97,257.43,384,256,384
				s-2.857-0.03-4.282-0.079c-0.256-0.008-0.511-0.019-0.766-0.029c-10.677-0.429-21.231-2.207-31.524-5.275l-4.234-1.262
				c-37.867-12.728-67.82-42.68-80.549-80.547l-1.263-4.236c-3.068-10.293-4.846-20.847-5.275-31.524
				c-0.01-0.255-0.021-0.51-0.029-0.766C128.03,258.857,128,257.43,128,256s0.03-2.857,0.079-4.282
				c0.008-0.256,0.019-0.511,0.029-0.766c0.429-10.677,2.207-21.231,5.275-31.524l1.263-4.236
				c12.728-37.866,42.68-67.818,80.546-80.546l4.236-1.263c10.293-3.068,20.847-4.846,31.524-5.275
				c0.255-0.01,0.51-0.021,0.766-0.029C253.143,128.03,254.57,128,256,128s2.857,0.03,4.282,0.079
				c0.256,0.008,0.511,0.019,0.766,0.029c10.677,0.429,21.231,2.207,31.524,5.275l4.236,1.263
				c37.867,12.728,67.819,42.682,80.547,80.549l1.262,4.234c3.068,10.293,4.846,20.847,5.275,31.524
				c0.01,0.255,0.021,0.51,0.029,0.766C383.97,253.143,384,254.57,384,256S383.97,258.857,383.921,260.282z M256,469.333
				c-7.025,0-14.122-0.39-21.333-1.156v-42.835c3.436,0.429,6.906,0.746,10.403,0.967c0.152,0.01,0.304,0.019,0.456,0.029
				c1.466,0.089,2.937,0.159,4.413,0.211c0.336,0.012,0.672,0.028,1.008,0.038c1.679,0.049,3.362,0.08,5.053,0.08
				s3.374-0.032,5.053-0.08c0.336-0.01,0.672-0.026,1.008-0.038c1.476-0.052,2.947-0.122,4.413-0.211
				c0.152-0.009,0.304-0.019,0.456-0.029c3.496-0.221,6.967-0.538,10.403-0.967v42.835C270.122,468.944,263.025,469.333,256,469.333
				z M256,42.667c7.025,0,14.122,0.39,21.333,1.156v42.835c-3.436-0.429-6.906-0.746-10.403-0.967
				c-0.152-0.01-0.304-0.019-0.456-0.029c-1.466-0.089-2.937-0.159-4.413-0.211c-0.336-0.012-0.672-0.028-1.008-0.038
				c-1.679-0.049-3.362-0.08-5.053-0.08s-3.374,0.032-5.053,0.08c-0.336,0.01-0.672,0.026-1.008,0.038
				c-1.476,0.052-2.947,0.122-4.413,0.211c-0.152,0.009-0.304,0.019-0.456,0.029c-3.496,0.221-6.967,0.538-10.403,0.967V43.823
				C241.878,43.056,248.975,42.667,256,42.667z M192,52.441v45.311c-42.778,17.318-76.931,51.471-94.248,94.248H52.441
				C73.28,125.656,125.656,73.28,192,52.441z M85.691,245.069c-0.01,0.152-0.019,0.304-0.029,0.456
				c-0.089,1.466-0.159,2.937-0.211,4.413c-0.012,0.336-0.028,0.672-0.038,1.008c-0.049,1.679-0.08,3.362-0.08,5.053
				s0.032,3.374,0.08,5.053c0.01,0.336,0.026,0.672,0.038,1.008c0.052,1.476,0.122,2.947,0.211,4.413
				c0.009,0.152,0.019,0.304,0.029,0.456c0.221,3.496,0.538,6.967,0.967,10.403H43.823c-0.767-7.211-1.156-14.309-1.156-21.333
				s0.39-14.122,1.156-21.333h42.835C86.23,238.103,85.913,241.573,85.691,245.069z M52.441,320h45.311
				c17.318,42.778,51.471,76.931,94.248,94.248v45.311C125.656,438.72,73.28,386.344,52.441,320z M320,459.56v-45.311
				c42.778-17.318,76.931-51.471,94.248-94.248h45.311C438.72,386.344,386.344,438.72,320,459.56z"/>
		</g>
	</g>
</g>
<g>
</g>
<g>
</g>
<g>
</g>
<g>
</g>
<g>
</g>
<g>
</g>
<g>
</g>
<g>
</g>
<g>
</g>
<g>
</g>
<g>
</g>
<g>
</g>
<g>
</g>
<g>
</g>
<g>
</g>
</svg>
