<svg fill="#EF4444" xmlns="http://www.w3.org/2000/svg" viewBox="0 0 512 512">
  <path d="M320 234.667h-42.667V192c0-11.782-9.551-21.333-21.333-21.333s-21.333 9.551-21.333 21.333v42.667H192c-11.782 0-21.333 9.551-21.333 21.333s9.551 21.333 21.333 21.333h42.667V320c0 11.782 9.551 21.333 21.333 21.333s21.333-9.551 21.333-21.333v-42.667H320c11.782 0 21.333-9.551 21.333-21.333s-9.551-21.333-21.333-21.333z"/>
  <path d="M505.955 311.467a256.474 256.474 0 005.971-49.626 232.396 232.396 0 000-11.682 256.464 256.464 0 00-5.971-49.626L504.391 192h-.457C480.78 102.043 409.957 31.22 320 8.066v-.457l-8.533-1.565A256.474 256.474 0 00261.841.073a232.396 232.396 0 00-11.682.001 256.464 256.464 0 00-49.626 5.971L192 7.609v.457C102.043 31.22 31.22 102.043 8.066 192h-.457l-1.565 8.533a256.474 256.474 0 00-5.971 49.626 232.396 232.396 0 00.001 11.682 256.464 256.464 0 005.971 49.626L7.609 320h.457C31.22 409.957 102.043 480.78 192 503.934v.457l8.533 1.565a256.474 256.474 0 0049.626 5.971 232.396 232.396 0 0011.682 0 256.464 256.464 0 0049.626-5.971l8.533-1.565v-.457C409.957 480.78 480.78 409.957 503.934 320h.457l1.564-8.533zm-37.778-34.134h-42.835c.429-3.436.746-6.906.967-10.403l.029-.456c.089-1.466.159-2.937.211-4.413.012-.336.028-.672.038-1.008.049-1.679.08-3.362.08-5.053s-.032-3.374-.08-5.053c-.01-.337-.026-.673-.038-1.009a178.173 178.173 0 00-.21-4.408l-.029-.463a171.005 171.005 0 00-.967-10.399h42.835c.767 7.211 1.156 14.309 1.156 21.333s-.39 14.121-1.157 21.332zM459.56 192h-45.311c-17.318-42.778-51.471-76.931-94.248-94.248V52.441C386.344 73.28 438.72 125.656 459.56 192zm-75.639 68.282c-.008.256-.019.511-.029.766-.429 10.677-2.207 21.231-5.275 31.524l-1.262 4.234c-12.728 37.868-42.682 67.821-80.549 80.549l-4.234 1.262c-10.293 3.068-20.847 4.846-31.524 5.275-.255.01-.51.021-.766.029-1.425.049-2.852.079-4.282.079s-2.857-.03-4.282-.079c-.256-.008-.511-.019-.766-.029-10.677-.429-21.231-2.207-31.524-5.275l-4.234-1.262c-37.867-12.728-67.82-42.68-80.549-80.547l-1.263-4.236c-3.068-10.293-4.846-20.847-5.275-31.524-.01-.255-.021-.51-.029-.766-.048-1.425-.078-2.852-.078-4.282s.03-2.857.079-4.282c.008-.256.019-.511.029-.766.429-10.677 2.207-21.231 5.275-31.524l1.263-4.236c12.728-37.866 42.68-67.818 80.546-80.546l4.236-1.263c10.293-3.068 20.847-4.846 31.524-5.275.255-.01.51-.021.766-.029 1.425-.049 2.852-.079 4.282-.079s2.857.03 4.282.079c.256.008.511.019.766.029 10.677.429 21.231 2.207 31.524 5.275l4.236 1.263c37.867 12.728 67.819 42.682 80.547 80.549l1.262 4.234c3.068 10.293 4.846 20.847 5.275 31.524.01.255.021.51.029.766.049 1.424.079 2.851.079 4.281s-.03 2.857-.079 4.282zM256 469.333c-7.025 0-14.122-.39-21.333-1.156v-42.835c3.436.429 6.906.746 10.403.967l.456.029c1.466.089 2.937.159 4.413.211.336.012.672.028 1.008.038 1.679.049 3.362.08 5.053.08s3.374-.032 5.053-.08c.336-.01.672-.026 1.008-.038a173.81 173.81 0 004.413-.211l.456-.029c3.496-.221 6.967-.538 10.403-.967v42.835A201.428 201.428 0 01256 469.333zm0-426.666c7.025 0 14.122.39 21.333 1.156v42.835a171.062 171.062 0 00-10.403-.967l-.456-.029a173.81 173.81 0 00-4.413-.211c-.336-.012-.672-.028-1.008-.038-1.679-.049-3.362-.08-5.053-.08s-3.374.032-5.053.08c-.336.01-.672.026-1.008.038a173.81 173.81 0 00-4.413.211l-.456.029c-3.496.221-6.967.538-10.403.967V43.823A201.428 201.428 0 01256 42.667zm-64 9.774v45.311C149.222 115.07 115.069 149.223 97.752 192H52.441C73.28 125.656 125.656 73.28 192 52.441zM85.691 245.069l-.029.456a173.81 173.81 0 00-.211 4.413c-.012.336-.028.672-.038 1.008-.049 1.679-.08 3.362-.08 5.053s.032 3.374.08 5.053c.01.336.026.672.038 1.008a173.81 173.81 0 00.24 4.869c.221 3.496.538 6.967.967 10.403H43.823c-.767-7.211-1.156-14.309-1.156-21.333s.39-14.122 1.156-21.333h42.835a172.83 172.83 0 00-.967 10.403zM52.441 320h45.311c17.318 42.778 51.471 76.931 94.248 94.248v45.311C125.656 438.72 73.28 386.344 52.441 320zM320 459.56v-45.311c42.778-17.318 76.931-51.471 94.248-94.248h45.311C438.72 386.344 386.344 438.72 320 459.56z"/>
</svg>