<svg height="512pt" viewBox="0 -31 512 512" width="512pt" xmlns="http://www.w3.org/2000/svg"><path d="m406 390h-300c-8.285156 0-15-6.714844-15-15v-60c0-55.019531-15.800781-108.535156-45.699219-154.761719-2.34375-3.625-3.011719-8.082031-1.835937-12.230469 1.171875-4.152343 4.078125-7.597656 7.972656-9.453124 3.167969-1.515626 5.726562-4.105469 7.195312-7.300782 2.890626-6.277344 9.691407-9.769531 16.46875-8.460937 41.675782 8.046875 77.851563 32.945312 100.328126 68.191406l58.203124-123.683594c3.175782-6.75 10.832032-10.140625 17.964844-7.957031 2.839844.871094 5.964844.871094 8.804688 0 7.132812-2.183594 14.789062 1.207031 17.964844 7.957031l58.203124 123.683594c22.480469-35.242187 58.652344-60.144531 100.328126-68.191406 6.78125-1.3125 13.582031 2.183593 16.46875 8.460937 1.472656 3.195313 4.027343 5.785156 7.195312 7.300782 3.894531 1.855468 6.800781 5.300781 7.976562 9.453124 1.175782 4.148438.503907 8.605469-1.839843 12.230469-29.898438 46.226563-45.699219 99.742188-45.699219 154.761719v60c0 8.285156-6.714844 15-15 15zm0 0" fill="#ffba00"/><path d="m406 390c8.285156 0 15-6.714844 15-15v-60c0-55.019531 15.800781-108.535156 45.699219-154.761719 2.34375-3.625 3.011719-8.082031 1.835937-12.230469-1.171875-4.152343-4.078125-7.597656-7.972656-9.453124-3.167969-1.515626-5.726562-4.105469-7.195312-7.300782-2.890626-6.277344-9.6875-9.773437-16.46875-8.460937-41.679688 8.046875-77.851563 32.949219-100.328126 68.191406l-58.203124-123.683594c-3.175782-6.75-10.832032-10.140625-17.964844-7.957031-1.421875.4375-2.910156.652344-4.402344.652344v330.003906zm0 0" fill="#f0ad00"/><path d="m467 170c-24.8125 0-45-20.1875-45-45s20.1875-45 45-45 45 20.1875 45 45-20.1875 45-45 45zm0 0" fill="#7a2aaf"/><path d="m416 450h-320c-24.8125 0-45-20.1875-45-45s20.1875-45 45-45h320c24.8125 0 45 20.1875 45 45s-20.1875 45-45 45zm0 0" fill="#00c7ce"/><path d="m416 360h-160v90h160c24.8125 0 45-20.1875 45-45s-20.1875-45-45-45zm0 0" fill="#00a7ad"/><path d="m256 90c-24.8125 0-45-20.1875-45-45s20.1875-45 45-45 45 20.1875 45 45-20.1875 45-45 45zm0 0" fill="#ff2828"/><path d="m301 45c0-24.8125-20.1875-45-45-45v90c24.8125 0 45-20.1875 45-45zm0 0" fill="#e30000"/><path d="m45 170c-24.8125 0-45-20.1875-45-45s20.1875-45 45-45 45 20.1875 45 45-20.1875 45-45 45zm0 0" fill="#00c7ce"/></svg>