<svg height="800px" width="800px" version="1.1" id="Layer_1" xmlns="http://www.w3.org/2000/svg" xmlns:xlink="http://www.w3.org/1999/xlink" viewBox="0 0 512.006 512.006" xml:space="preserve" fill="#000000"><g id="SVGRepo_bgCarrier" stroke-width="0"></g><g id="SVGRepo_tracerCarrier" stroke-linecap="round" stroke-linejoin="round"></g><g id="SVGRepo_iconCarrier"> <path style="fill:#3CC247;" d="M298.617,188.868c-12.815-67.956-52.258-107.966-118.242-135.144 c-9.13-3.761-17.146,7.132-10.902,14.781c19.864,24.333,31.253,55.742,29.885,89.596c-0.417,10.342-1.991,20.055-4.591,29.105 v56.863h103.85V188.868z"></path> <path style="fill:#2DA85F;" d="M295.152,173.626c-7.327,2.087-14.555,4.623-21.645,7.601c-5.264,2.212-11.152-0.999-12.43-6.564 c-0.009-0.039-0.017-0.076-0.026-0.115c-12.615-54.511-43.66-90.139-93.08-115.59c-1.205,2.945-0.984,6.501,1.501,9.546 c19.864,24.333,31.253,55.742,29.885,89.596c-0.417,10.342-1.991,20.055-4.591,29.105v51.368h35.538v5.495h68.315v-55.2 C297.63,183.617,296.462,178.552,295.152,173.626z"></path> <path style="fill:#FC4C59;" d="M337.197,290.676v137.379H249.01V216.649c57.427-44.505,133.843-51.887,197.498-22.957 c9.978,4.534,7.356,19.348-3.569,20.216c-28.045,2.229-55.535,13.727-77.512,34.624 C351.993,261.305,342.705,275.606,337.197,290.676"></path> <path style="fill:#E83A64;" d="M331.155,216.983c-5.781,2.665-11.617,5.855-17.189,9.522c-11.387,7.493-26.516,5.156-35.592-5.014 c-4.665-5.227-9.717-10.184-15.149-14.829c-4.846,3.099-9.599,6.411-14.216,9.989v199.5h29.721v11.905h58.467V290.675 c5.508-15.069,14.796-29.37,28.23-42.142c21.977-20.896,49.467-32.393,77.512-34.624c4.552-0.362,7.657-3.148,9.014-6.6 C409.316,194.527,367.721,200.132,331.155,216.983z"></path> <path style="fill:#FD4DD7;" d="M303.908,308.183c-8.313-40.515-31.947-77.752-69.169-102.029 c-56.886-37.102-128.331-33.626-180.591,3.01c-7.676,5.381-3.07,17.463,6.255,16.498c23.123-2.391,47.185,2.736,68.287,16.243 c18.575,11.89,30.757,27.649,37.056,45.315l2.14,26.137v114.697h136.023V308.183"></path> <path style="fill:#E846AA;" d="M296.76,283.479c-13.965,8.86-26.392,19.922-36.802,32.695c-3.009,3.693-8.268,4.624-12.387,2.23l0,0 c-2.456-1.427-4.162-3.857-4.669-6.652c-4.996-27.605-19.072-53.704-40.059-75.778c-38.866-40.88-104.093-37.533-152.093-16.616 c1.232,3.778,4.801,6.807,9.65,6.305c23.123-2.391,47.185,2.736,68.287,16.243c18.575,11.89,30.756,27.65,37.056,45.315l2.14,26.137 v114.697h58.435h18.611h58.977V308.183C302.182,299.777,299.788,291.516,296.76,283.479z"></path> <path style="fill:#674799;" d="M155.237,428.055h100.385v-22.772c0-65.705-52.54-120.128-118.243-120.689 c-47.244-0.402-88.204,26.664-107.879,66.191c-3.987,8.008,5.295,16.265,12.769,11.348c12.418-8.166,27.28-12.918,43.253-12.918 C129.064,349.215,155.237,384.513,155.237,428.055z"></path> <path style="fill:#7C54B8;" d="M112.326,324.98c-30.521-0.261-61.057,15.923-82.287,34.545c2.498,3.72,7.694,5.591,12.229,2.608 c12.418-8.166,27.28-12.918,43.253-12.918c43.542,0,69.714,35.297,69.714,78.84h50.63 C210.744,364.097,170.324,325.474,112.326,324.98z"></path> <path style="fill:#3CC247;" d="M355.492,428.055h-100.12v-22.772c0-65.705,52.54-120.128,118.243-120.689 c47.244-0.402,88.204,26.664,107.879,66.191c3.987,8.008-5.295,16.265-12.769,11.348c-12.418-8.166-27.28-12.918-43.253-12.918 C381.93,349.215,355.492,384.513,355.492,428.055z"></path> <path style="fill:#2DA85F;" d="M388.855,321.219c-60.298,11.886-83.624,47.505-90.391,106.836h57.028 c0-43.542,26.437-78.84,69.979-78.84c15.973,0,30.837,4.752,43.253,12.918c3.652,2.401,7.732,1.654,10.488-0.668 C457.149,336.544,424.152,314.262,388.855,321.219z"></path> <g> <circle style="fill:#FFDB6C;" cx="18.814" cy="375.14" r="18.814"></circle> <circle style="fill:#FFDB6C;" cx="32.714" cy="224.67" r="18.814"></circle> </g> <g> <path style="fill:#FFB966;" d="M32.886,205.855c5.082,3.369,8.437,9.133,8.437,15.687c0,10.39-8.423,18.814-18.814,18.814 c-0.058,0-0.115-0.008-0.172-0.009c2.975,1.972,6.54,3.127,10.377,3.127c10.39,0,18.814-8.423,18.814-18.814 C51.527,214.327,43.197,205.948,32.886,205.855z"></path> <path style="fill:#FFB966;" d="M18.985,356.322c5.082,3.369,8.437,9.133,8.437,15.686c0,10.39-8.423,18.814-18.814,18.814 c-0.058,0-0.115-0.008-0.172-0.009c2.975,1.972,6.54,3.127,10.377,3.127c10.39,0,18.814-8.423,18.814-18.814 C37.626,364.794,29.295,356.416,18.985,356.322z"></path> </g> <circle style="fill:#FFDB6C;" cx="152.851" cy="47.463" r="18.814"></circle> <path style="fill:#FFB966;" d="M153.033,28.645c5.082,3.369,8.437,9.133,8.437,15.687c0,10.39-8.423,18.814-18.814,18.814 c-0.058,0-0.115-0.008-0.172-0.009c2.975,1.972,6.54,3.127,10.377,3.127c10.39,0,18.814-8.423,18.814-18.814 C171.674,37.117,163.343,28.738,153.033,28.645z"></path> <circle style="fill:#FFDB6C;" cx="471.547" cy="205.86" r="18.814"></circle> <path style="fill:#FFB966;" d="M471.716,187.051c5.082,3.369,8.437,9.133,8.437,15.687c0,10.39-8.423,18.814-18.814,18.814 c-0.058,0-0.115-0.008-0.172-0.009c2.975,1.972,6.54,3.127,10.377,3.127c10.39,0,18.814-8.423,18.814-18.814 C490.358,195.523,482.026,187.144,471.716,187.051z"></path> <circle style="fill:#FFDB6C;" cx="493.192" cy="374.131" r="18.814"></circle> <path style="fill:#FFB966;" d="M493.359,355.33c5.082,3.369,8.437,9.133,8.437,15.686c0,10.39-8.423,18.814-18.814,18.814 c-0.058,0-0.115-0.008-0.172-0.009c2.975,1.972,6.54,3.127,10.377,3.127c10.39,0,18.814-8.423,18.814-18.814 C512,363.802,503.67,355.423,493.359,355.33z"></path> <path style="fill:#FFDB6C;" d="M363.989,426.921H146.657c-6.707,0-12.143,5.437-12.143,12.143v32.153 c0,6.707,5.437,12.143,12.143,12.143H363.99c6.707,0,12.143-5.437,12.143-12.143v-32.153 C376.132,432.358,370.696,426.921,363.989,426.921z"></path> <path style="fill:#FFB966;" d="M363.989,426.921h-35.432c6.707,0,12.143,5.437,12.143,12.143v32.153 c0,6.707-5.437,12.143-12.143,12.143h35.432c6.707,0,12.143-5.437,12.143-12.143v-32.153 C376.132,432.358,370.696,426.921,363.989,426.921z"></path> <g> <circle style="fill:#7C54B8;" cx="168.056" cy="455.143" r="8.504"></circle> <circle style="fill:#7C54B8;" cx="202.241" cy="455.143" r="8.504"></circle> <circle style="fill:#7C54B8;" cx="236.426" cy="455.143" r="8.504"></circle> <circle style="fill:#7C54B8;" cx="270.611" cy="455.143" r="8.504"></circle> <circle style="fill:#7C54B8;" cx="304.795" cy="455.143" r="8.504"></circle> <circle style="fill:#7C54B8;" cx="338.98" cy="455.143" r="8.504"></circle> </g> </g></svg>