<svg xmlns="http://www.w3.org/2000/svg" xmlns:xlink="http://www.w3.org/1999/xlink" class="card" height="336" preserveAspectRatio="none" viewBox="-120 -168 240 336" width="240">
  <defs>
    <path id="i" d="M-52-80H52V80H-52z"/>
  </defs>
  <symbol id="h" viewBox="-500 -500 1000 1000" preserveAspectRatio="xMinYMid">
    <path d="M-260 100c300 0 220 360 520 360M-175 0v-285a175 175 0 01350 0v570a175 175 0 01-350 0z" stroke="red" stroke-width="80" stroke-linecap="square" stroke-miterlimit="1.5" fill="none"/>
  </symbol>
  <symbol id="a" viewBox="-600 -600 1200 1200" preserveAspectRatio="xMinYMid">
    <path d="M0-300c0-100 100-200 200-200s200 100 200 250C400 0 0 400 0 500 0 400-400 0-400-250c0-150 100-250 200-250S0-400 0-300z" fill="red"/>
  </symbol>
  <symbol id="b" preserveAspectRatio="none" viewBox="0 0 1300 2000">
    <path fill="#FC4" d="M798 0l198 317c31-16 61-27 99-12-30-94-66-186 12-305zM495 59c-67 89-137 256-209 474l15-9-18 11c90 62 189 99 292 113 29 83 46 178 53 264l52 19c42 19 67 24 85 24 5-102 15-220 50-316h-2c63-13 126-34 188-64l-19-18a674 674 0 01-675-37l116-67c27-78 54-148 81-209-5-37-9-76-9-84zm770 456c-52 8-65 52-55 115 62-14 19-83 55-115zM245 569a207 207 0 00-54 95c-5-4-11-10-20-24-7 7-18 25-11 32-7-7-25 3-32 10 19 12 24 20 27 25l-24 5c-27 9-56 27-82 53-23 23-40 48-49 73v38l8-1c11 0 23 4 32 13 18 17 15 46-1 62a46 46 0 01-39 13v68a171 171 0 0022-57c5 2 12 8 23 25 7-7 18-25 11-32 7 7 24-3 31-10a76 76 0 01-24-22l18-5c27-8 56-26 81-52 26-26 44-54 53-82l5-24c5 3 12 7 25 27 7-7 18-25 11-32 7 7 24-3 31-10-14-9-20-16-24-21l16-4c15-4 30-12 45-22-155 181-124 483-166 612 0 0 17 28 22 13 10-28 16-62 20-99 8-57 13-124 23-193 19-132 56-268 160-356l-4-29 11-9-31-13-20 23c-23 23-49 39-70 45l-10 2c10-9 13-21 60-59-6-7-26-12-40 2 14-14 8-34 1-41-39 49-51 51-60 62l3-12a184 184 0 0147-72zm866 9c-10-1-20 2-31 7 46-4 40 81 115 60-8-30-43-67-84-67zm-79 25c-26 50-30 145-43 251h-2l-10-3c-70-11-139 48-154 133-14 80 25 154 89 172l-2 56 24-45c55-107 72-231 83-337 6-53 10-102 17-141 6-23 8-48 18-69zm-822 72c11 0 21 4 30 13 18 17 15 46-1 62a45 45 0 01-63 1 45 45 0 011-63 46 46 0 0133-13zm-58 63c-8 9-17 22-56 54 7 6 27 12 41-2-14 14-8 34-2 41 32-39 46-48 54-55l-2 11c-7 21-23 47-46 70s-49 39-70 45l-10 2c8-8 14-21 58-57-6-7-26-12-40 2 14-14 8-34 1-41-37 46-49 50-58 59l3-11c7-21 22-47 45-70a184 184 0 0182-48zm1148 51l-199 184-5 30 204-189zM165 930a15 15 0 00-15 15 15 15 0 0015 15 15 15 0 0015-15 15 15 0 00-15-15zM38 1047a15 15 0 00-15 15 15 15 0 0015 15 15 15 0 0015-15 15 15 0 00-15-15z"/>
  </symbol>
  <symbol id="c" preserveAspectRatio="none" viewBox="0 0 1300 2000">
    <path fill="red" d="M746 0l206 341 44-24L798 0zm129 35c-31 8-42 4-54 2l58 92c7-20 14-39 26-59-2-16 2-22 5-30-17 2-27-1-35-5zm165 245c-15 4-45 5-66 0l23 36c26-13 52-23 83-16-15-6-31-11-40-20zm130 20c0 14-11 28-20 38-28-21-68 21-47 48-10 8-24 19-38 19 14 0 28 11 38 19-23 26 19 70 47 47 8 10 20 24 20 39 0-16 14-31 21-42 29 30 77-20 49-46 10-8 22-17 35-17-13 0-25-9-35-17 28-26-20-76-49-47-7-10-21-25-21-41zm0 37a3 3 0 013 3v23c21 1 38 18 39 39h28a3 3 0 110 6h-28c-1 21-18 38-39 39v28a3 3 0 11-6 0v-28c-21-1-38-18-39-39h-28a3 3 0 110-6h28c1-21 18-38 39-39v-23a3 3 0 013-3zm-692 85l-57 32c169 94 327 63 482 16-11-15-22-30-32-47h-1c-135 40-258 61-392-1zm-87 228l-13 8c10 58 15 127 10 186 32 9 57 31 74 61a295 295 0 0168-10c23 0 48 3 74 10-7-67-20-144-39-208-60-8-118-24-174-47zm504 20l-70 17c-24 85-31 173-35 264 14-3 29-9 51-20v-1c14-27 35-49 58-63zm-686 35a14 15 45 00-11 5 14 15 45 00-1 20 14 15 45 0021-1 14 15 45 000-20 14 15 45 00-9-4zm1047 37l44 23zM9 905a14 15 45 00-9 3v24a14 15 45 0018-3 14 15 45 000-20 14 15 45 00-9-4zm531 50a10 10 0 00-10 10 10 10 0 0010 10 10 10 0 0010-10 10 10 0 00-10-10zm110 35a10 10 0 00-10 10 10 10 0 0010 10 10 10 0 0010-10 10 10 0 00-10-10z"/>
  </symbol>
  <symbol id="d" preserveAspectRatio="none" viewBox="0 0 1300 2000">
    <path fill="#44F" d="M526 167a13 20 0 00-12 20 13 20 0 0012 20 13 20 0 0013-20 13 20 0 00-13-20zm153 2a13 20 0 00-13 20 13 20 0 0013 20 13 20 0 0012-20 13 20 0 00-12-20zM479 424l-10 2 1 5 12 46 36-19 15 34 35-20 23 34 33-27 26 31 30-30 31 27 24-31 29 27 25-39 38 23 20-35 38 19 7-16-7-10-5 12-37-19-20 35-37-23-24 37-29-25-24 31-29-27-29 29-26-30-32 26-21-33-35 20-14-34-35 19-8-34zm-58 30l-114 67a672 672 0 00674 36c-28-26-53-55-78-87l-16 5 57 44 7 20c13 38-29 41-38 13l-26-77-4 1 26 82c12 38-30 40-39 12l-25-82 31-10-35 10 18 86c9 39-32 37-39 8l-18-83 34-10-35 9 13 86c6 39-35 36-39 6l-14-84 22-5-23 5 7 85c3 40-38 33-40 3l-6-83-5 1 7 83c3 40-38 33-40 3l-7-83h-2v84c0 40-40 30-40 0v-84l-5-1-8 83c-3 40-42 26-39-4l7-82-5-1-8 80c-4 39-42 26-40-4l9-83-3-1-21 79c-10 39-46 19-39-10l16-60-23 56c-15 37-48 13-37-15l28-67-38 70c-18 35-49 7-35-19l38-71-54 64c-26 30-50-3-31-26l9-10 78-31v-1h1l-13-7zm573 179c-33 15-66 27-99 37l5 197c20-12 42-18 65-17l1-10c9-80 12-152 28-207zm-207 11l-72 9c47 3 63 22 7 27 39 5 44 20-7 25 40 4 54 23-2 33 35 4 44 22 0 27v7c32 7 40 20-1 23v8c31 5 38 16 0 21v5c25 5 30 15-1 20v5c26 5 32 15 0 20v5c26 5 32 15 0 20v1c21 5 24 13-1 18v1c22 6 26 14 0 19v5l31 9c4-97 13-213 46-308zm-185 7c30 87 46 181 52 270l26 10 14 7v-17c-41-3-48-17-1-23l-1-3c-42-3-49-17-1-23v-1c-44-2-52-17-1-23v-3c-45-2-53-18-1-24v-1c-48-2-56-20-2-26v-2c-51-1-61-20-1-26v-3c-50-1-60-20-1-26v-2c-57 0-68-23-2-29v-1c-64 2-78-24-1-29v-1c-57 2-78-13-40-21-13 0-27-1-40-3zm654 91a4683 4683 0 0044 23zm18 9l-2-1-3 3c14 7 2 26-28 29h-1c-3 19-21 43-35 48-19 7-62 14-87-7l-17 150 199-185v-23l-26-14z"/>
  </symbol>
  <symbol id="e" preserveAspectRatio="none" viewBox="0 0 1300 2000">
    <path d="M676 0l364 600 50-30L746 0zM504 244c-27 61-54 131-81 209l122-71c-17-29-28-58-30-67l-11-71zM259 548l-24 14a722 722 0 00330 135c19 64 32 141 38 208l25 7c-6-77-20-162-44-238a690 690 0 01-325-126zm763 45c-71 35-143 59-216 72-28 91-37 197-41 290h10l16-4c3-91 10-179 34-264 57-11 113-29 169-54-16 55-19 127-28 207l-2 10 13 1 11 2c14-106 18-200 44-250z"/>
  </symbol>
  <symbol id="f" preserveAspectRatio="none" viewBox="0 0 1300 2000">
    <path stroke="#44F" stroke-linecap="round" stroke-linejoin="round" stroke-width="6" fill="none" d="M546 382L0 698m210 269L0 1161m912-5c99-195 71-456 120-553M388 844c64 18 103 92 89 172-15 85-84 144-154 133l-10-3m597 66l24-45c55-107 72-231 83-337 6-53 10-102 17-141 6-23 8-48 18-69m67 45c-9 28-15 62-19 99-8 57-13 124-23 193-19 132-56 268-160 356M378 658c10 58 15 127 10 186m-230 478c46-143 4-495 221-664l11-9m866 93l44 23M751 123a798 798 0 00391 555M283 535a701 701 0 00718 40m-742-27c99 71 210 113 325 126m222-8c73-14 145-38 216-73m-40-36a674 674 0 01-675-37m794 453l199-184M895 670l4 197m-74-180c57-11 113-29 168-53m-758-72a717 717 0 00330 135m429-65c-16 56-19 128-28 208l-1 10M715 653l-5 291m-29-290l14 284m120-299c-35 96-45 214-50 316M575 648c29 83 46 178 53 264m163 38c3-90 10-178 35-263m-40-43c-32 95-41 211-46 308m-86-31c-6-89-22-183-52-270m-37 47c19 63 32 140 39 207M676 0l364 600 50-30L746 0m206 341c49-25 87-58 143-36-30-94-66-186 12-305M997 317L798 0m191 304l-44 25m34-41l-43 26m33-41l-43 25m34-40l-44 25m34-40l-30 17m21-32l-23 13m122-96c-45 15-84-37-115-15-35 25 6 70 25 60 20-10 15-40-5-40s-10 15-10 15m105-20c-35 32-9 91-44 107-39 19-57-39-40-51 19-12 43 7 33 24-10 18-18 1-18 1m-44-19c27-9 52-25 78-37m-50 25c23-18 26-20 30-35m-30 35c18-4 40-3 50 5m-42 64c27 10 57 6 82-9 10 20 32 34 50 50m-121-25c21 5 51 4 66 0 9 9 25 14 40 20M821 37c12 2 23 6 54-2 8 4 18 7 35 5-3 8-7 14-5 30-12 20-19 39-26 59m19 30c4-23 2-48 32-69 2-29 7-59 14-90M421 454c169 94 327 63 482 16m-33-47c-135 40-258 61-392-2m664 257l18-18c5-5 28 2 39-13 17-23 35-6 18 13-14 15-37 27-37 27 11 35 6 67-10 98m60-140c40-50 60-14 25 20-40 38-64 28-25-20v0m6 35c52-37 61 4 18 26-49 25-69 10-18-26v0m0 35c54-29 58 12 14 29-49 18-67 0-14-29v0m-1 38c55-13 49 25 6 29-48 3-59-17-6-29v0m5 29c-3 19-21 43-35 48-19 7-62 14-87-7M587 978l21 6m-128-5l15-5m346-43c-31 15-49 22-66 24-18 1-44-2-95-24a370 370 0 00-169-35c-18 2-34 5-49 10m35 53l-18 4m136 8l-33-10m65 22l-7-3m106 34c-21-3-46-10-77-22m151 13a162 162 0 01-47 10m-249-75a190 190 0 00-47 8m173 20c-36-15-67-24-95-27m185 57c-16-3-35-8-58-17m140 8c-15 5-28 9-43 11m-259-74a203 203 0 00-47 8m353 37c-18 8-33 12-48 14-25 2-57-3-110-26-41-18-76-28-108-32m362 206l-4-1c-48-14-83-74-71-143 13-74 72-122 126-113l8 2 5 1m-31 161c-19 0-35-18-35-40s16-40 35-40c7 0 13 2 18 6m-10 49l-8 2c-8 0-15-8-15-17s7-17 15-17c5 0 10 3 13 8m-27-28l-21-48-33-5 3 40-35 15 15 40-23 30 33 20-10 40h40l5 35m5-215l20-35 35 20-13 61m13-61l10-10m-75 205l29-60m-59 20l46-32m-56-18l50-3m-30-52l36 26m-21-41l28 34m17-59l3 49m-73 21l41 10m-46 40l47-17m-22 57l33-39m-18 99l11-4m9-36l12-51M218 729a14 15 45 01-21 1 14 15 45 011-20 14 15 45 0120-1 14 15 45 010 20v0m2 16c4 3 7 9 6 20m8-34c3 4 9 6 20 5m-73-29c-3-4-8-7-20-7m34-7c-4-3-6-9-5-21m10 68c-6 6-12 13-15 28m2-41c-5 6-13 12-27 15m68-30c6-7 14-12 28-15m-40 2c6-6 11-14 14-28m-17 82c1 28 7 7 32 46 7-7 18-25 11-32 7 7 24-3 31-10-38-25-18-32-46-32m-67-11c-28 0-7-7-46-32 7-7 25-17 32-10-7-7 4-25 11-32 24 39 31 18 32 46m4 61c-16 41-14 14-72 84-6-7-12-27 2-41-14 14-34 8-41 2 71-57 44-56 85-71m54-3c41-16 14-14 84-71-6-7-26-12-40 2 14-14 8-34 1-41-57 70-55 43-71 84M0 908a14 15 45 0118 1 14 15 45 010 20 14 15 45 01-18 3m20 13c4 3 7 9 6 20m8-34c3 4 9 6 20 5m-54 4s0 0 0 0m28-28c6-7 14-12 28-15m-40 2c6-6 11-14 14-28m-17 82c1 28 7 7 32 46 7-7 18-25 11-32 7 7 24-3 31-10-38-25-18-32-46-32M0 871c2 2 2 6 3 15m4 61l-7 15m35-44c41-16 14-14 84-71-6-7-26-12-40 2 14-14 8-34 1-41-57 70-55 43-71 84m13-24l3-12c7-21 22-47 45-70a184 184 0 0181-48m38 38l-2 11c-7 21-23 47-46 70a184 184 0 01-80 48m2 30l18-5c27-8 56-26 81-52 26-26 44-54 53-82l5-24m-65-65l-24 5c-27 9-56 27-82 53-23 23-40 48-49 73m263-102l16-4c15-4 30-12 45-22m-79-141a207 207 0 00-54 95m29 6l3-12a184 184 0 0147-72m89 50l-20 23a184 184 0 01-80 48M0 1031a171 171 0 0021-57m32 92l27 21m-78-60l29 23m8 27l28 22m-67-52l24 19m-24 3l55 42m-55-21l42 33m-42-11l29 22m-29-1l15 12m1-150l89 69m-95-52l83 64M74 932l95 73m-86-44l73 56m-90-48l78 60m-88-46l75 57m-84-43l71 55m-97-75l20 16m137-132l49 38m-91-70l18 14m-79-61l57 44M0 724l51 39m116 111l55 43M63 794l80 61M0 746l39 30m115 110l64 49m-106-82l18 14m-43-33l8 6m-43-33l18 14M0 767l28 22m113 108l72 56M98 865l18 13m-74-57l16 13M0 789l18 14m161 145l28 22m-80-62l31 24m-72-55l15 11m-67-52l12 10M0 810l9 7m156 142l29 22m-83-63l38 28m-75-57l11 8m-59-45l7 6m61 67l88 68M63 902l3 2m152-120l40 31M61 663l66 51m86 88l38 29m-67-51l4 3m-53-41l8 6m-98-75l64 49m97 96l39 30m-74-57l11 8m-64-48l14 10M29 682l63 49m106 102l40 32m-79-62l15 12m-72-55l17 13M13 691l64 49m112 108l44 34m-85-66l16 13m-40-31l6 5m-42-33l18 14M0 703l64 49m212 13l6 4M109 636l44 34m105 102l16 12M93 645l42 32m117 112l14 10M77 654l70 54m133-26l15 11m-66-51l12 9m-68-52l32 25m100 98l6 4m-42-32l9 7m-55-42l5 3m-71-54l41 32m89 90l14 10M141 617l51 40m75 79l24 18M125 626l36 28m126-32l50 39m-79-61l18 13m-56-42l14 10m72 77l19 14m-78-59l18 13m-60-46l18 15m70 74l17 14m-72-56l15 12m-64-50l25 20m56-22l79 61m-113-86l9 6m389-53v84c0 30 40 40 40 0v-84m-35 0c19 54 15 94 15 94m16-94c-16 36-16 94-16 94m22-94l7 83c2 30 43 37 40-3l-7-83m-35 2c24 53 23 92 23 92m8-94c-13 37-8 94-8 94m17-95l6 83c2 30 43 37 40-3l-7-86m-34 6c24 52 22 91 22 91m10-96c-15 37-10 96-10 96m13-96l14 84c4 30 45 33 39-6l-13-87m-35 8c29 52 30 92 30 92m3-99c-13 38-3 99-3 99m6-98l18 83c7 29 48 31 39-8l-19-86m-33 10c31 50 35 90 35 90m-3-100c-10 39 3 100 3 100m3-100l25 82c9 28 51 26 39-12l-26-82m-33 11c35 46 43 86 43 86m-12-96c-6 39 12 96 12 96m0-100c34 44 42 82 42 82m-48-80l26 77c9 28 51 25 38-13l-7-20m-23-26c4 32 14 62 14 62m-346-44l-7 82c-3 30 36 44 39 4l8-83m-34-2c14 55 5 93 5 93m26-91c-20 34-26 91-26 91m-55-102l-9 83c-2 30 36 43 40 4l8-80m-34-6c14 55 5 94 5 94m24-89c-18 35-24 89-24 89m-52-107l-21 80c-7 29 29 49 39 10l21-79m-33-9c5 56-10 93-10 93m39-85c-25 31-39 85-39 85m-30-109l-31 75c-11 28 22 52 37 15l31-75m-31-12c-3 56-22 89-22 89m49-79c-28 28-49 79-49 79m-20-108l-40 75c-14 26 17 54 35 19l41-77m-31-15c-9 58-32 91-32 91m62-77c-33 23-62 77-62 77m-51-61l-9 10c-19 23 5 56 31 26l57-68m-42 11c-18 34-37 52-37 52m78-63c-37 14-78 63-78 63m-69 8c72-217 142-384 209-473M323 511c59-175 116-315 171-407M385 476c38-111 76-207 113-284m-75 261c27-78 54-148 81-209M294 507l26 6m-20-21l40 10m-35-25l55 13m-50-28l70 16m-65-31l85 20m-80-35l100 23m-94-38l101 24m-96-38l102 23m-96-38l101 23m-83-36l89 20m-69-30l73 17m-43-27l49 11M495 0v160c0 15 15 135 20 155s55 140 110 140 105-55 105-55m89-45c-19 35-49 66-75 98m15-54l-48 59m79-80c-19 27-42 52-63 78m-22-28l-26 32m11-27c44-11 110-61 137-85m6 9c-18 33-46 63-71 93m78-80c-17 27-39 51-60 76m66-63c-14 20-31 40-47 59m54-48l-35 43m41-32l-22 27m-107-15l-36 42m-36-10l-10 12m34-23l-19 23m-53-9l-5 6m18-3l-4 4m20-5l-5 6m-52-28l-16 19m24-11l-11 14m21-7l-8 9m-33-51l-30 37m37-27l-25 30m33-21l-21 25m-33-52l-25 32m51-46c-12 18-26 34-40 50m47-38l-36 43m435-97h1m-134-11c21 12 51 30 83 42m-94-67c19 11 47 28 78 41m-88-65c18 11 44 26 72 38m-80-61c16 9 38 23 63 35m-71-58c14 8 33 20 55 31m-63-53l47 25m-53-47l36 20m-43-42l26 14m44 172c23 13 54 31 86 43m-72-17c24 14 56 32 88 43m-71-15c24 14 55 31 86 40m-68-11c24 13 54 28 84 36m-63-6c24 12 51 25 78 31m-52 1c21 10 44 19 67 24m-38 8c17 8 35 13 53 16m-23 15l38 11m203-144c10-3 28-25 48-25-20 0-38-22-48-25-11-5-27 0-42 10 10-15 15-31 10-42-3-10-25-28-25-48 0 20-22 38-25 48-5 11 0 27 10 42-15-10-31-15-42-10-10 3-28 25-48 25 20 0 38 22 48 25 11 5 27 0 42-10-10 15-15 31-10 42 3 10 25 28 25 48 0-20 22-38 25-48 5-11 0-27-10-42 15 10 31 15 42 10v0m-125-45c-20-26 20-68 48-47m90 50c28-26-20-76-49-47m-88 83c-23 26 19 70 48 47m89-49c28 26-20 76-49 46m-36-78l-35-35m65 35l35-35m-65 65l-35 35m65-35l35 35m-60 31c4 81 36 105 35 162m-19-157c4 71 30 97 34 145m-15 9c-10-37-63-86-115-60 46-4 40 81 115 60v0m0 3c-17-27-38-38-60-48m75 30c-10-63 3-107 55-115-36 32 7 101-55 115v0m0 0c5-32 13-59 25-80M623 0c18 57 55 85 107 89M641 0c16 35 41 56 74 65M664 0c9 15 21 27 34 36m-203 66c70-39 75-70 84-102m-84 78c46-29 57-54 65-78m-65 48c23-17 35-33 42-48m68 330s-5-20-15-20-20-4-20-19c0-10 24-82 15-141-27-19-56-30-90-10h5c30-10 58-10 85 10m35 0c36-43 75-22 115 0-38-16-75-35-109 0h-6v0m10 120c30-1 25 35 10 35-7 0-13-8-19-9-16-1-16 9 4 4m-50 50v10l5-5-5-5v0m95-5v10l-5-5 5-5m-90 10c12 6 14-5 20-5 5 0 11 5 16 5s12-6 17-6c18 10 20 1 32 1m-70 25c13 16 29 11 45 0-14 8-29 5-45 0v0m-95-190c4-9 14-17 25-17 20 0 35 22 50 22m-77 2c3 9 14 13 27 13 21 1 35-10 50-15m55 0c22-1 31-18 45-20 30-5 50 20 65 20m-90-5c-5 15 17 25 30 25 19 0 45-20 60-20M283 535a701 701 0 00718 40M180 945a15 15 0 01-15 15 15 15 0 01-15-15 15 15 0 0115-15 15 15 0 0115 15v0m0 0a15 15 0 01-15 15 15 15 0 01-15-15 15 15 0 0115-15 15 15 0 0115 15v0M53 1062a15 15 0 01-15 15 15 15 0 01-15-15 15 15 0 0115-15 15 15 0 0115 15v0m1043-59l204-189m-760 191c-37 22-13-14-10-30-16 3-52 27-30-10l-3-6c-15-28 18-7 33-4-3-16-27-52 10-30 37-22 13 14 10 30 16-3 49-25 32 6l-2 4c22 37-14 13-30 10 3 16 27 52-10 30v0m90 30c-43 0-4-19 6-31-15-6-58-3-21-24 0-43 19-4 31 6 6-15 3-58 24-21 43 0 4 19-6 31 15 6 58 3 21 24 0 43-19 4-31-6-6 15-3 58-24 21v0m540-647c9 0 18 8 18 17s-9 18-18 18-17-9-17-18 8-17 17-17v0"/>
  </symbol>
  <symbol id="g" preserveAspectRatio="none" viewBox="0 0 1300 2000">
    <path stroke="#44F" stroke-linecap="round" stroke-linejoin="round" stroke-width="3" fill="none" d="M1198 650c10 3 25-9 25-9m-6 24c13 5 13 20 13 20m-11 8c10 10 5 24 5 24m-4 13c9 10 3 24 3 24m-8 5c10 10 3 23 3 23m22-137c5 2 9 5 10 10m-7 31c4 3 7 7 7 12m-7 24c4 4 6 8 5 13m-7 24c2 6 3 10 0 15M595 405c13-6 26-7 40 0M495 165c20-20 45-20 60-5m-35 70c20 5 40-15 40-15m90-50c30-15 60 0 75 15v0m-55 50c35 0 55-20 55-20m-183-38l2 12c0 13-8 24-18 24-9 0-17-11-17-24 0-5 1-9 3-13m181 0c3 4 5 10 5 16 0 14-8 24-18 24-9 0-17-10-17-24 0-5 1-10 4-14"/>
    <use xlink:href="#a" height="75" transform="rotate(30 -1646 2348)"/>
    <use xlink:href="#a" height="75" transform="rotate(15 -3387 4259)"/>
    <use xlink:href="#a" height="75" transform="rotate(3 -16741 19660)"/>
    <use xlink:href="#a" height="75" transform="rotate(5 -8376 12073)"/>
    <use xlink:href="#a" height="75" transform="rotate(10 -3231 6260)"/>
  </symbol>
  <rect width="239" height="335" x="-119.5" y="-167.5" rx="12" ry="12" fill="#fff" stroke="#000"/>
  <use width="104" height="160" x="-52" y="-80" xlink:href="#b"/>
  <use transform="rotate(180)" width="104" height="160" x="-52" y="-80" xlink:href="#b"/>
  <use width="104" height="160" x="-52" y="-80" xlink:href="#c"/>
  <use transform="rotate(180)" width="104" height="160" x="-52" y="-80" xlink:href="#c"/>
  <use width="104" height="160" x="-52" y="-80" xlink:href="#d"/>
  <use transform="rotate(180)" width="104" height="160" x="-52" y="-80" xlink:href="#d"/>
  <use width="104" height="160" x="-52" y="-80" xlink:href="#e"/>
  <use transform="rotate(180)" width="104" height="160" x="-52" y="-80" xlink:href="#e"/>
  <use width="104" height="160" x="-52" y="-80" xlink:href="#f"/>
  <use transform="rotate(180)" width="104" height="160" x="-52" y="-80" xlink:href="#f"/>
  <use width="104" height="160" x="-52" y="-80" xlink:href="#g"/>
  <use transform="rotate(180)" width="104" height="160" x="-52" y="-80" xlink:href="#g"/>
  <use xlink:href="#h" height="70" x="-122" y="-156"/>
  <use xlink:href="#a" height="58.6" x="-116.3" y="-81"/>
  <use xlink:href="#a" height="34.4" x="-55.7" y="-81.2"/>
  <g transform="rotate(180)">
    <use xlink:href="#h" height="70" x="-122" y="-156"/>
    <use xlink:href="#a" height="58.6" x="-116.3" y="-81"/>
    <use xlink:href="#a" height="34.4" x="-55.7" y="-81.2"/>
  </g>
  <use xlink:href="#i" stroke="#44F" fill="none"/>
</svg>